<svg width="243" height="304" viewBox="0 0 243 304" fill="none" xmlns="http://www.w3.org/2000/svg">
<path d="M67.2206 303.556L227.749 217.423C228.763 216.879 229.395 215.824 229.395 214.673V28.2253M67.2206 303.556V240.786M67.2206 303.556L14.1031 275.211C13.0863 274.669 12.4512 273.61 12.4512 272.459V212.222M229.395 28.2253L174.27 57.4524M229.395 28.2253L175.712 0.733039C174.808 0.270143 173.735 0.275875 172.836 0.748404L120.568 28.2253M67.2206 240.786L120.568 212.222M67.2206 240.786L12.4512 212.222M12.4512 212.222L67.2206 182.663M174.27 57.4524V119.892M174.27 57.4524L120.568 28.2253M120.568 28.2253V92.6576M174.27 119.892L120.568 148.455M174.27 119.892L120.568 92.6576M120.568 148.455V212.222M120.568 148.455L67.2206 119.892M120.568 92.6576L67.2206 119.892M120.568 212.222L67.2206 182.663M67.2206 119.892V182.663" stroke="#FF9E2C" stroke-width="0.780388"/>
</svg>
