<svg width="136" height="117" viewBox="0 0 136 117" fill="none" xmlns="http://www.w3.org/2000/svg">
<g clip-path="url(#clip0_51_6004)">
<path d="M87.7111 30.5038L65.9765 18.0158C65.1429 17.5367 64.117 17.5394 63.2857 18.0225L60.4891 19.6482M60.4891 19.6482C58.3425 16.2985 55.5987 14.1481 51.9745 12.7705M60.4891 19.6482C60.9724 20.4025 61.4254 21.2174 61.8516 22.0983C67.543 33.864 55.5155 49.4893 42.4706 49.3697C35.9006 49.3095 29.62 45.2897 25.7775 39.826M5.18213 51.7979L56.4031 80.0173C57.229 80.4723 58.2329 80.4614 59.0488 79.9887L81.5874 66.9281M5.18213 51.7979C4.9199 52.6663 4.6843 53.4661 4.48685 54.2263C3.81871 56.7988 3.58748 58.9177 4.23957 61.6979C4.39289 62.3516 4.59503 63.0418 4.85182 63.783C5.05541 64.3708 5.47767 64.8545 6.01838 65.1622L9.12352 66.9281M5.18213 51.7979L25.7775 39.826M81.5874 66.9281V36.1075M81.5874 66.9281V69.9166M9.12352 66.9281L56.3923 93.81C57.2231 94.2826 58.2425 94.2784 59.0696 93.7992L81.5874 80.7506M9.12352 66.9281L2.94587 70.6052M25.7775 39.826C22.0397 34.5112 20.609 27.8303 23.4626 22.0983C26.7972 15.3997 32.1356 12.9484 39.489 11.6379C39.6924 11.6016 39.8908 11.5672 40.0851 11.5346M81.5874 80.7506V77.9487M81.5874 80.7506V84.6733M81.5874 77.9487V69.9166M81.5874 77.9487L59.0948 91.1589C58.2546 91.6523 57.2132 91.6526 56.3729 91.1598L55.6842 90.7558M81.5874 84.6733L55.3275 99.0789C54.5071 99.5289 53.5117 99.5201 52.6994 99.0557L2.94587 70.6052M81.5874 84.6733V88.2223M123.331 12.7586L122.277 12.1085C121.434 11.5886 120.374 11.5741 119.517 12.0706L81.5874 34.0528V36.1075M123.331 12.7586L120.536 14.3851M123.331 12.7586V16.0492M81.5874 36.1075C81.5874 36.1075 89.5379 40.5474 94.6323 43.3923M120.536 14.3851L86.1199 34.4097C85.6759 34.668 85.6741 35.3087 86.1165 35.5696L93.2846 39.7959C94.1176 40.2871 95.1504 40.293 95.9891 39.8114L130.226 20.1541M120.536 14.3851L123.331 16.0492M123.331 16.0492L130.226 20.1541M135.444 20.0434L134.383 19.3894C133.544 18.8717 132.488 18.8551 131.633 19.3461L130.226 20.1541M135.444 20.0434C135.444 20.0434 110.57 34.2741 94.6323 43.3923M135.444 20.0434V92.9696C135.444 93.9575 134.902 94.8657 134.033 95.3352L94.6323 116.614M94.6323 43.3923C94.6323 71.9875 94.6323 116.614 94.6323 116.614M94.6323 116.614L82.9148 109.735C82.0926 109.252 81.5874 108.37 81.5874 107.417V99.8033M81.5874 99.8033L55.3427 114.734C54.5151 115.205 53.5 115.203 52.6742 114.728L1.68659 85.4482C0.851705 84.9688 0.336914 84.0796 0.336914 83.1168V82.2582M81.5874 99.8033V96.2543M81.5874 69.9166L59.0269 82.6367C58.2223 83.0904 57.241 83.0993 56.4283 82.6601L55.6842 82.2582M55.6842 82.2582C54.7344 85.4865 54.2984 87.1979 55.6842 90.7558M55.6842 82.2582L8.8279 56.6284C7.29186 55.7883 5.38482 56.6414 5.44259 58.3911C5.47787 59.4596 5.63326 60.5424 5.86074 61.666C6.00998 62.403 6.48675 63.0287 7.14193 63.3981L55.6842 90.7558M2.94587 70.6052L0.336914 72.1582M0.336914 72.1582V82.2582M0.336914 72.1582L2.94587 73.6745M0.336914 82.2582L2.94587 83.7012M2.94587 73.6745L52.0787 102.231M2.94587 73.6745V83.7012M81.5874 96.2543V88.2223M81.5874 96.2543L55.318 111.199C54.5037 111.662 53.5069 111.668 52.687 111.215L52.0787 110.878M81.5874 88.2223L55.3384 102.622C54.5121 103.075 53.5089 103.063 52.694 102.589L52.0787 102.231M52.0787 102.231C50.4655 105.078 50.1611 106.811 52.0787 110.878M2.94587 83.7012L52.0787 110.878M39.6752 12.1982C40.5415 12.9574 41.323 13.2185 42.4704 13.1322C43.5095 13.0539 44.1596 12.7532 44.8931 12.0114M39.6752 12.1982C41.864 14.4684 42.8178 15.9916 42.1265 18.8889C41.9583 19.5939 42.3926 20.3259 43.1085 20.4284C43.7696 20.523 44.3712 20.0337 44.4145 19.3657L44.5041 17.9887M39.6752 12.1982C39.7923 11.9507 39.9295 11.7292 40.0851 11.5346M44.8931 12.0114C44.999 11.7347 45.1045 11.4649 45.2099 11.2018M44.8931 12.0114L44.5041 17.9887M44.8931 12.0114C44.6965 11.6629 44.4717 11.3785 44.2126 11.1549M44.5041 17.9887C47.6183 17.506 49.2362 16.2226 51.9745 12.7705M40.0851 11.5346C40.6542 10.8227 41.4718 10.4701 42.4704 10.5171C43.1811 10.5505 43.7509 10.7565 44.2126 11.1549M45.2099 11.2018C47.2928 6.00118 49.353 3.37844 54.3871 0.38912C54.6363 0.241152 54.9487 0.427454 54.9403 0.717635C54.7897 5.87731 54.0723 8.59889 51.9745 12.7705M45.2099 11.2018C44.8721 11.1755 44.5414 11.16 44.2126 11.1549" stroke="#304EA0" stroke-width="0.672174"/>
</g>
<defs>
<clipPath id="clip0_51_6004">
<rect width="135.781" height="117" fill="white"/>
</clipPath>
</defs>
</svg>
