<svg width="20" height="20" viewBox="0 0 20 20" fill="none" xmlns="http://www.w3.org/2000/svg">
<path d="M12.8999 14.3202C11.2927 15.5688 9.26991 16.1578 7.24357 15.9673C5.21724 15.7769 3.33967 14.8213 1.99318 13.2951C0.646696 11.7689 -0.0674734 9.78685 -0.00390579 7.75258C0.0596618 5.71831 0.896186 3.78474 2.33534 2.34559C3.77449 0.90644 5.70805 0.0699157 7.74233 0.00634812C9.7766 -0.0572194 11.7586 0.656949 13.2848 2.00344C14.811 3.34993 15.7666 5.22749 15.9571 7.25383C16.1475 9.28016 15.5585 11.3029 14.3099 12.9102L19.6599 18.2402L18.2399 19.6602L12.9099 14.3202H12.8999ZM7.99994 14.0002C8.78787 14.0002 9.56809 13.845 10.296 13.5435C11.024 13.2419 11.6854 12.8 12.2426 12.2428C12.7997 11.6857 13.2417 11.0243 13.5432 10.2963C13.8447 9.56834 13.9999 8.78813 13.9999 8.0002C13.9999 7.21227 13.8447 6.43205 13.5432 5.7041C13.2417 4.97614 12.7997 4.31471 12.2426 3.75756C11.6854 3.2004 11.024 2.75845 10.296 2.45692C9.56809 2.15539 8.78787 2.0002 7.99994 2.0002C6.40864 2.0002 4.88252 2.63234 3.7573 3.75756C2.63208 4.88277 1.99994 6.4089 1.99994 8.0002C1.99994 9.5915 2.63208 11.1176 3.7573 12.2428C4.88252 13.3681 6.40864 14.0002 7.99994 14.0002Z" fill="white"/>
</svg>
