<svg width="50" height="50" viewBox="0 0 50 50" fill="none" xmlns="http://www.w3.org/2000/svg">
<path d="M39.5837 8.33337H10.417C8.75939 8.33337 7.16968 8.99185 5.99758 10.164C4.82547 11.3361 4.16699 12.9258 4.16699 14.5834V35.4167C4.16699 37.0743 4.82547 38.664 5.99758 39.8361C7.16968 41.0082 8.75939 41.6667 10.417 41.6667H39.5837C41.2413 41.6667 42.831 41.0082 44.0031 39.8361C45.1752 38.664 45.8337 37.0743 45.8337 35.4167V14.5834C45.8337 12.9258 45.1752 11.3361 44.0031 10.164C42.831 8.99185 41.2413 8.33337 39.5837 8.33337ZM38.1878 12.5L25.0003 22.3959L11.8128 12.5H38.1878ZM39.5837 37.5H10.417C9.86446 37.5 9.33455 37.2805 8.94385 36.8898C8.55315 36.4991 8.33366 35.9692 8.33366 35.4167V15.1042L23.7503 26.6667C24.1109 26.9372 24.5496 27.0834 25.0003 27.0834C25.4511 27.0834 25.8897 26.9372 26.2503 26.6667L41.667 15.1042V35.4167C41.667 35.9692 41.4475 36.4991 41.0568 36.8898C40.6661 37.2805 40.1362 37.5 39.5837 37.5Z" fill="#FF9E2C"/>
</svg>
