<svg width="50" height="50" viewBox="0 0 50 50" fill="none" xmlns="http://www.w3.org/2000/svg">
<path d="M24.9996 4.01782C29.6172 4.01782 34.0457 5.85216 37.3108 9.1173C40.576 12.3824 42.4103 16.8109 42.4103 21.4285C42.4103 28.7857 37.2407 36.8035 27.0353 45.5678C26.4678 46.0553 25.7443 46.323 24.9962 46.3224C24.2481 46.3217 23.5251 46.0527 22.9585 45.5643L22.2835 44.9785C12.5299 36.4428 7.58887 28.6214 7.58887 21.4285C7.58887 16.8109 9.42321 12.3824 12.6883 9.1173C15.9535 5.85216 20.382 4.01782 24.9996 4.01782ZM24.9996 14.7321C23.2236 14.7321 21.5203 15.4376 20.2645 16.6934C19.0087 17.9493 18.3032 19.6525 18.3032 21.4285C18.3032 23.2045 19.0087 24.9078 20.2645 26.1636C21.5203 27.4195 23.2236 28.125 24.9996 28.125C26.7756 28.125 28.4789 27.4195 29.7347 26.1636C30.9905 24.9078 31.696 23.2045 31.696 21.4285C31.696 19.6525 30.9905 17.9493 29.7347 16.6934C28.4789 15.4376 26.7756 14.7321 24.9996 14.7321Z" fill="#FF9E2C"/>
</svg>
