<svg width="50" height="50" viewBox="0 0 50 50" fill="none" xmlns="http://www.w3.org/2000/svg">
<g clip-path="url(#clip0_247_26378)">
<path fill-rule="evenodd" clip-rule="evenodd" d="M34.4833 46.1104C31.4833 46 22.9812 44.825 14.077 35.9229C5.17492 27.0188 4.002 18.5188 3.8895 15.5167C3.72283 10.9417 7.227 6.49794 11.2749 4.76252C11.7624 4.55204 12.2962 4.4719 12.8239 4.52997C13.3517 4.58804 13.8553 4.78233 14.2853 5.09377C17.6187 7.52294 19.9187 11.1979 21.8937 14.0875C22.3282 14.7224 22.514 15.4949 22.4157 16.2579C22.3173 17.021 21.9417 17.7211 21.3603 18.225L17.2958 21.2438C17.0994 21.3856 16.9612 21.5938 16.9067 21.8299C16.8523 22.0659 16.8854 22.3136 16.9999 22.5271C17.9208 24.2 19.5583 26.6917 21.4333 28.5667C23.3103 30.4417 25.9187 32.1875 27.7083 33.2125C27.9326 33.3385 28.1967 33.3737 28.4463 33.3109C28.6958 33.2481 28.9118 33.0922 29.0499 32.875L31.6958 28.8479C32.1822 28.2018 32.8998 27.7689 33.6982 27.64C34.4966 27.5111 35.314 27.6961 35.9791 28.1563C38.9103 30.1854 42.3312 32.4459 44.8353 35.6521C45.1721 36.0852 45.3862 36.6009 45.4555 37.1451C45.5248 37.6893 45.4466 38.2422 45.2291 38.7459C43.4853 42.8146 39.0728 46.2792 34.4833 46.1104Z" fill="#FF9E2C"/>
</g>
<defs>
<clipPath id="clip0_247_26378">
<rect width="50" height="50" fill="white"/>
</clipPath>
</defs>
</svg>
