<svg width="1199" height="280" viewBox="0 0 1199 280" fill="none" xmlns="http://www.w3.org/2000/svg">
<g clip-path="url(#clip0_156_736)">
<mask id="mask0_156_736" style="mask-type:alpha" maskUnits="userSpaceOnUse" x="0" y="0" width="1199" height="280">
<path d="M1188.66 0H10.3362C4.62768 0 0 4.47715 0 10V270C0 275.523 4.62768 280 10.3362 280H1188.66C1194.37 280 1199 275.523 1199 270V10C1199 4.47715 1194.37 0 1188.66 0Z" fill="#4EABE9"/>
<path d="M1188.66 0.5H10.337C4.91387 0.5 0.517578 4.75329 0.517578 10V270C0.517578 275.247 4.91387 279.5 10.337 279.5H1188.66C1194.09 279.5 1198.48 275.247 1198.48 270V10C1198.48 4.75329 1194.09 0.5 1188.66 0.5Z" stroke="white" stroke-opacity="0.2"/>
</mask>
<g mask="url(#mask0_156_736)">
<path d="M1316.69 21.4974L1269.86 -56.2671L634.283 301.981L681.112 379.745L1316.69 21.4974Z" fill="white" fill-opacity="0.07"/>
<path d="M1615.28 -19.2355L1568.45 -97L752.647 362.835L799.477 440.6L1615.28 -19.2355Z" fill="white" fill-opacity="0.07"/>
<path d="M529.976 -60.2062L483.146 -137.971L-145.74 216.508L-98.91 294.273L529.976 -60.2062Z" fill="white" fill-opacity="0.07"/>
<path d="M981.668 -187.236L934.838 -265L-107.642 322.606L-60.8121 400.37L981.668 -187.236Z" fill="white" fill-opacity="0.07"/>
</g>
</g>
<defs>
<clipPath id="clip0_156_736">
<rect width="1199" height="280" fill="white"/>
</clipPath>
</defs>
</svg>
