<svg width="1600" height="653" viewBox="0 0 1600 653" fill="none" xmlns="http://www.w3.org/2000/svg">
<g clip-path="url(#clip0_111_350)">
<g opacity="0.06">
<path d="M1588.17 244.755C1483.69 234.015 1409.95 199.854 1361.62 170.279C1312.75 140.371 1277.56 107.562 1213.26 89.9227C1142.32 70.3236 1095.98 79.104 1077.64 84.0432C1052.23 90.903 1053.81 95.5669 1012.24 111.482C932.375 142.056 917.198 128.454 881.415 148.72C822.082 182.313 839.774 233.29 777.719 289.833C732.775 330.795 658.367 363.388 591.058 340.791C527.674 319.506 520.543 266.06 453.856 258.475C426.463 255.359 403.681 262.277 358.134 276.114C299.759 293.753 260.561 315.508 244.862 323.151C198.357 345.827 123.294 360.096 0.769531 315.312" stroke="white" stroke-width="0.768861" stroke-miterlimit="10"/>
<path d="M1588.87 262.041C1487.8 252.771 1412.24 221.844 1359.53 191.191C1316.71 165.947 1284.06 138.273 1239.05 118.498C1229.21 114.186 1218.84 110.011 1207.67 106.405C1137.3 83.7093 1091.13 87.4528 1071.85 89.7456C1046.01 92.8033 1046.01 96.2917 1005.26 111.756C976.546 122.633 956.095 128.846 940.256 132.923C913.323 139.842 899.845 140.311 878.593 153.62C870.667 158.544 863.224 164.574 856.42 171.592C824.942 204.028 826.28 245.147 774.067 288.735C728.613 326.679 654.699 355.372 588.538 332.931C583.297 331.15 578.132 329.043 573.064 326.62C521.916 302.141 510.429 259.082 451.815 252.32C445.638 251.597 439.429 251.381 433.228 251.673C412.393 252.575 390.856 258.964 356.747 269.312C300.239 286.559 261.646 307.903 244.336 316.35C231.658 322.48 218.583 327.292 205.25 330.736C159.112 342.809 93.8923 344.063 2.14258 313.254" stroke="white" stroke-width="0.768861" stroke-miterlimit="10"/>
<path d="M1589.57 280.856C1491.94 273.017 1414.48 245.578 1357.45 213.475C1312.15 187.996 1277.98 158.891 1233.81 138.116C1223.72 133.354 1213.27 128.532 1202.05 124.397C1132.24 98.5844 1086.31 95.4682 1066.02 96.9583C1039.87 98.9181 1038.13 98.5452 998.282 113.539C970.372 124.064 950.005 131.178 934.466 136.176C908.287 144.545 895.693 146.23 875.818 160.047C868.244 165.368 861.125 171.613 854.566 178.686C824.158 210.907 822.659 249.556 770.376 289.225C724.417 324.131 650.998 348.923 585.986 326.639C580.482 324.68 575.393 322.72 570.623 320.368C517.864 295.437 506.185 254.378 449.726 247.851C443.598 247.11 437.437 246.868 431.283 247.126C410.096 247.89 388.59 254.103 355.311 264.354C300.653 281.13 262.699 302.121 243.762 311.176C231.185 317.25 218.232 322.074 205.026 325.601C159.303 337.948 94.3872 340.555 3.54688 312.802" stroke="white" stroke-width="0.768861" stroke-miterlimit="10"/>
<path d="M1590.26 300.945C1496.05 294.614 1416.74 270.41 1355.34 237.13C1307.63 211.26 1271.9 180.822 1228.59 159.028C1218.25 153.815 1207.7 148.366 1196.47 143.682C1127.21 114.793 1081.6 108.737 1060.21 105.444C1033.74 101.387 1030.28 102.073 991.309 116.596C964.183 126.729 943.893 134.764 928.577 140.684C903.159 150.483 891.434 153.423 872.927 167.73C865.769 173.456 859.011 179.915 852.729 187.035C823.389 219.02 818.961 255.181 766.741 290.91C720.204 322.778 647.343 343.691 583.481 321.543C578.024 319.584 572.967 317.624 568.229 315.33C513.89 289.852 501.973 250.869 447.698 244.382C441.614 243.622 435.496 243.354 429.383 243.579C407.846 244.186 386.308 250.262 353.906 260.316C301.131 276.603 263.784 297.221 243.235 307.04C230.734 313.022 217.888 317.851 204.802 321.484C159.494 334.107 94.8811 338.085 4.96582 313.371" stroke="white" stroke-width="0.768861" stroke-miterlimit="10"/>
<path d="M1590.95 321.074C1500.16 316.213 1419.03 295.281 1353.24 260.806C1303.12 234.524 1265.83 202.734 1223.35 179.96C1212.77 174.296 1202.15 168.201 1190.87 162.987C1122.17 131.08 1076.97 120.223 1054.39 113.989C1027.69 106.621 1022.48 105.66 984.311 119.713C957.909 129.512 937.795 138.41 922.733 145.191C898.084 156.402 887.235 160.635 870.082 175.413C863.347 181.532 856.95 188.197 850.937 195.365C822.651 227.077 815.285 260.767 763.114 292.674C716.003 321.485 643.716 338.536 580.986 316.546C575.594 314.586 570.568 312.626 565.846 310.372C509.913 284.364 497.788 247.655 445.683 241.09C439.64 240.34 433.566 240.046 427.495 240.208C405.639 240.678 384.165 246.597 352.513 256.455C301.588 272.291 264.863 292.557 242.703 303.082C230.292 309.005 217.555 313.845 204.589 317.565C159.679 330.481 95.3704 335.792 6.36426 314.155" stroke="white" stroke-width="0.768861" stroke-miterlimit="10"/>
<path d="M1591.63 334.047C1504.25 330.657 1421.29 313.018 1351.13 277.348C1298.59 250.634 1259.74 217.434 1218.08 193.758C1207.29 187.623 1196.55 180.959 1185.24 175.158C1117.13 140.233 1072.3 124.671 1048.58 115.362C1021.65 104.817 1014.58 102.054 977.347 115.656C956.779 123.194 936.597 132.212 916.899 142.663C892.964 155.265 883.023 160.831 867.276 175.981C860.403 182.626 854.944 189.701 849.047 196.58C821.814 227.938 811.488 259.297 759.417 287.285C711.683 313.018 640.003 326.227 578.421 304.394C573.077 302.434 568.083 300.474 563.393 298.26C505.848 271.781 493.515 237.013 443.58 230.643C437.586 229.891 431.561 229.578 425.536 229.702C403.329 230.075 381.887 235.778 351.096 245.382C302.039 260.708 265.919 280.66 242.165 291.89C229.831 297.751 217.195 302.596 204.338 306.394C159.843 319.604 95.8526 326.287 7.75586 307.687" stroke="white" stroke-width="0.768861" stroke-miterlimit="10"/>
<path d="M1592.36 343.298C1508.41 341.338 1423.62 326.972 1349.07 290.145C1294.12 263.001 1253.74 228.35 1212.89 203.91C1201.85 197.285 1191.03 190.034 1179.67 183.684C1112.07 145.799 1067.6 125.553 1042.75 113.127C1015.64 99.5055 1006.73 94.8408 970.358 107.972C949.975 115.331 930.139 124.813 911.071 136.312C887.92 150.267 878.832 157.205 864.455 172.885C858.073 179.803 853.045 187.172 847.194 194.13C820.999 225.293 807.705 253.946 755.762 278.23C707.374 300.846 636.317 310.254 575.883 288.558C570.603 286.598 565.657 284.638 560.967 282.463C501.811 255.573 489.223 222.803 441.521 216.668C435.57 215.897 429.588 215.557 423.605 215.65C401.078 215.885 379.636 221.412 349.691 230.898C302.5 245.774 267.003 265.353 241.62 277.328C229.374 283.114 216.848 287.964 204.114 291.851C160.017 305.354 96.3301 313.41 9.14258 297.829" stroke="white" stroke-width="0.768861" stroke-miterlimit="10"/>
<path d="M1593.04 352.687C1512.53 352.236 1425.93 341.065 1346.96 303.081C1289.62 275.486 1247.72 239.345 1207.67 214.023C1196.39 206.87 1185.46 199.03 1174.07 192.17C1107.01 151.365 1062.85 126.513 1036.95 110.835C1009.45 94.2141 998.881 87.5896 963.383 100.25C943.147 107.532 923.641 117.578 905.234 130.198C882.899 145.466 874.633 153.854 861.617 169.925C855.773 177.138 851.145 184.742 845.355 191.837C820.183 222.666 803.875 248.772 752.091 269.312C703.033 288.774 632.645 294.399 573.408 272.879C568.176 270.919 563.262 268.959 558.604 266.803C497.835 239.365 485.105 208.653 439.509 202.558C433.606 201.786 427.672 201.42 421.737 201.46C398.858 201.46 377.449 206.909 348.349 216.238C303.008 230.604 268.15 249.87 241.14 262.531C228.978 268.268 216.555 273.137 203.936 277.112C160.255 290.832 96.8705 300.259 10.6084 287.775" stroke="white" stroke-width="0.768861" stroke-miterlimit="10"/>
<path d="M1593.76 362.115C1516.65 363.133 1428.24 355.196 1344.88 316.057C1285.13 288.01 1241.72 250.361 1202.44 224.274C1190.95 216.65 1179.89 208.282 1168.49 200.755C1101.96 157.03 1058.09 127.573 1031.13 108.64C1003.3 89.0407 991.039 80.4171 956.402 92.6082C936.32 99.8055 917.144 110.357 899.399 123.966C877.748 140.567 870.459 150.406 858.795 166.869C853.482 174.395 849.223 182.195 843.51 189.427C819.36 219.943 800.07 243.442 748.444 260.298C698.684 276.545 628.983 278.466 570.847 257.083C565.662 255.123 560.78 253.163 556.154 251.066C493.758 223.216 480.852 194.464 437.41 188.487C431.549 187.712 425.66 187.32 419.765 187.31C396.552 187.134 375.095 192.465 346.872 201.598C303.414 215.494 269.162 234.427 240.541 247.793C228.467 253.491 216.155 258.392 203.656 262.473C160.373 276.545 97.292 287.265 11.9395 277.838" stroke="white" stroke-width="0.768861" stroke-miterlimit="10"/>
<path d="M1594.45 371.502C1520.76 373.932 1430.5 369.208 1342.75 328.932C1280.53 300.416 1235.7 261.237 1197.17 234.426C1185.46 226.272 1174.29 217.375 1162.86 209.3C1096.87 162.713 1053.27 128.669 1025.27 106.385C997.044 83.9055 983.136 73.2045 949.375 84.9242C929.438 92.0969 910.578 103.205 893.54 117.811C872.642 135.686 866.261 147.054 855.95 163.889C851.168 171.729 847.324 179.706 841.596 187.094C818.43 217.277 796.125 238.052 744.69 251.34C694.228 264.334 625.228 262.59 568.226 241.364C563.104 239.404 558.254 237.444 553.643 235.484C489.637 207.203 476.539 180.411 435.283 174.59C429.456 173.775 423.598 173.357 417.733 173.336C394.186 173.14 372.808 178.176 345.351 187.055C303.761 200.48 270.13 219.08 239.881 233.152C228.953 238.247 216.845 243.285 203.3 247.793C160.432 262.139 97.6534 274.232 13.2266 267.842" stroke="white" stroke-width="0.768861" stroke-miterlimit="10"/>
<path d="M1595.16 380.616C1524.96 384.535 1432.86 383.046 1340.69 341.653C1276.14 312.665 1229.76 271.92 1191.97 244.402C1180.06 235.72 1168.75 226.312 1157.29 217.65C1091.78 168.201 1048.42 129.591 1019.49 103.975C990.87 78.4965 975.332 65.8357 942.44 77.0849C922.611 84.2399 904.058 95.8858 887.72 111.423C867.537 130.591 862.194 143.506 853.144 160.675C848.885 168.828 845.425 177.001 839.82 184.527C817.646 214.337 792.343 232.505 741.117 242.149C689.889 251.791 621.639 246.46 565.785 225.391C560.712 223.431 555.894 221.472 551.315 219.512C485.682 190.799 472.392 165.967 433.257 160.283C427.49 159.455 421.691 159.017 415.884 158.97C391.953 158.598 370.639 163.497 344.092 172.258C304.351 185.194 271.359 203.479 239.484 218.238C228.603 223.294 216.589 228.311 203.204 232.917C160.752 247.538 98.277 260.983 14.7588 257.671" stroke="white" stroke-width="0.768861" stroke-miterlimit="10"/>
<path d="M1595.84 389.612C1529.01 395.041 1435.17 396.706 1338.59 354.216C1271.58 324.817 1223.82 282.405 1186.76 254.261C1174.62 245.029 1163.2 235.131 1151.66 225.881C1086.66 173.552 1043.52 130.433 1013.69 101.368C984.612 73.1061 967.428 58.2502 935.52 69.0496C914.331 76.2223 895.094 91.059 881.931 104.837C862.448 125.26 857.996 139.763 850.361 157.265C846.655 165.732 843.565 174.1 838.044 181.783C816.839 211.181 788.583 226.645 737.532 232.741C685.635 238.993 618.039 230.134 563.334 209.221C558.324 207.262 553.538 205.302 548.975 203.342C481.73 174.178 468.266 151.306 431.333 145.78C425.608 144.939 419.851 144.475 414.086 144.388C389.853 143.82 368.538 148.602 342.741 157.186C304.867 169.651 272.544 187.604 239.042 203.067C228.21 208.065 216.292 213.103 203.082 217.767C161.028 232.682 98.8564 247.479 16.2637 247.166" stroke="white" stroke-width="0.768861" stroke-miterlimit="10"/>
<path d="M1596.54 398.49C1533.13 405.408 1437.55 410.013 1336.5 366.641C1267.21 336.537 1217.88 292.753 1181.52 263.922C1169.19 254.123 1157.59 243.755 1146.09 233.916C1081.54 178.823 1038.61 131.04 1007.86 98.6822C978.3 67.5594 959.655 50.6253 928.478 60.9349C908.042 67.7555 888.897 83.3757 876.042 98.1732C857.258 119.85 853.875 135.92 847.479 153.776C844.288 162.556 841.597 171.081 836.138 178.921C815.909 208.006 784.655 220.628 733.795 223.352C681.148 226.155 614.285 213.827 560.729 193.052C555.762 191.105 551.013 189.146 546.482 187.172C477.594 157.617 463.953 136.665 429.19 131.296C423.515 130.432 417.806 129.942 412.088 129.826C387.519 129.101 366.204 133.745 341.237 142.134C305.245 154.109 273.514 171.826 238.367 187.917C227.583 192.895 215.777 197.893 202.711 202.636C161.072 217.845 99.2028 233.995 17.5195 236.777" stroke="white" stroke-width="0.768861" stroke-miterlimit="10"/>
<path d="M1597.24 407.231C1537.25 415.6 1439.85 423.439 1334.41 378.93C1262.71 348.375 1211.93 302.905 1176.29 273.507C1163.76 263.178 1152.04 252.3 1140.49 241.873C1076.4 183.978 1033.6 131.61 1002.06 95.8413C971.988 61.8369 951.805 42.7469 921.573 52.6052C901.867 59.0536 882.8 75.4773 870.283 91.3335C852.176 114.264 849.862 131.942 844.756 150.131C842.165 159.244 839.759 167.946 834.4 175.923C815.017 204.616 780.779 216.375 730.126 213.729C676.873 210.946 610.6 197.286 558.176 176.668C553.263 174.72 548.551 172.761 544.042 170.788C473.494 140.958 459.71 121.79 427.116 116.577C421.484 115.707 415.817 115.197 410.141 115.048C385.238 114.186 363.876 118.654 339.818 126.807C305.756 138.41 274.583 155.912 237.825 172.591C227.088 177.53 215.378 182.527 202.487 187.349C161.247 202.852 99.6815 220.354 18.9238 226.194" stroke="white" stroke-width="0.768861" stroke-miterlimit="10"/>
<path d="M1598.01 415.874C1541.44 425.673 1442.2 436.786 1332.38 391.121C1258.27 360.115 1206.14 312.979 1171.13 282.914C1158.37 272.017 1146.52 260.689 1134.96 249.596C1071.31 188.839 1028.74 132.001 996.298 92.8032C965.644 55.9571 943.9 34.8288 914.515 44.1973C895.562 50.2729 876.579 67.4815 864.369 84.3949C846.939 108.541 845.74 127.826 841.834 146.328C839.82 155.775 837.728 164.634 832.446 172.787C814.101 201.088 777.027 208.066 726.469 203.988C672.513 199.696 606.943 180.626 555.668 160.165C550.882 158.205 546.096 156.245 541.645 154.285C469.486 124.005 455.494 106.777 425.071 101.74C419.487 100.847 413.869 100.31 408.239 100.134C383.001 99.114 361.719 103.446 338.426 111.442C306.152 122.476 275.664 139.547 237.295 157.029C226.59 161.929 214.96 166.829 202.197 171.827C161.371 187.506 100.093 206.458 20.3242 215.356" stroke="white" stroke-width="0.768861" stroke-miterlimit="10"/>
<path d="M1598.63 424.419C1545.49 435.728 1444.45 450.036 1330.21 403.233C1253.63 371.776 1200.18 322.877 1165.89 292.282C1152.99 280.798 1140.91 269.038 1129.35 257.396C1066.03 194.052 1023.74 132.354 990.554 89.7849C959.408 49.9794 936.234 26.8131 907.594 35.7501C889.388 41.4535 870.451 59.4456 858.587 77.3985C841.803 102.877 841.749 123.652 839.043 142.506C837.651 152.306 835.852 161.302 830.662 169.612C813.24 197.521 773.228 201.519 722.866 194.209C668.256 186.369 603.308 163.928 553.198 143.604C548.412 141.644 543.737 139.684 539.286 137.881C465.5 107.15 451.349 91.8039 423.079 86.9232C417.499 86.0428 411.887 85.5192 406.264 85.3555C382.859 84.2729 359.469 87.9142 337.024 96.1349C306.616 106.699 276.751 123.436 236.755 141.625C226.098 146.465 214.579 151.424 202.024 156.441C143.326 179.516 82.9709 195.667 21.7783 204.674" stroke="white" stroke-width="0.768861" stroke-miterlimit="10"/>
<path d="M1599.33 432.906C1549.61 445.685 1446.75 463.225 1328.12 415.267C1249.2 383.359 1194.33 332.814 1160.61 301.592C1010.92 162.89 963.531 7.97872 900.561 27.2054C883.108 32.5364 864.217 51.312 852.699 70.3236C828.096 110.893 843.604 141.664 828.772 166.359C792.397 226.92 628.773 159.283 536.815 121.281C447.155 84.2192 443.836 72.2834 404.399 70.3236C335.559 66.8545 299.774 100.82 201.787 140.88C143.525 164.584 83.758 182.284 23.1045 193.797" stroke="white" stroke-width="0.768861" stroke-miterlimit="10"/>
<path d="M1599.33 438.511C1548.28 452.485 1448.62 468.497 1335.2 422.596C1256.92 390.826 1204.38 339.791 1168.18 306.962C1023.58 175.982 978.476 34.124 914.33 46.7848C889.265 51.724 863.816 61.6215 847.016 76.7911C814.009 106.621 826.28 133.295 807.135 157.147C765.224 209.398 612.61 150.738 525.056 115.872C439.767 81.7888 436.321 72.1457 394.634 74.1055C325.363 77.3593 291.206 107.424 198.898 145.878C141.306 169.856 82.0053 187.12 21.7793 197.443" stroke="white" stroke-width="0.768861" stroke-miterlimit="10"/>
<path d="M1599.33 444.351C1514.2 468.429 1425.32 463.516 1342.29 430.142C1264.64 398.529 1214.53 346.964 1175.76 312.548C1036.44 188.957 992.823 58.0349 928.078 66.58C895.232 70.931 864.347 72.0281 841.342 83.4941C801.869 103.093 809.558 124.848 785.5 148.171C739.539 192.68 596.449 142.409 513.283 110.678C432.509 79.5737 428.919 72.0281 384.855 78.1044C315.329 87.6683 282.639 114.441 196.011 151.111C139.105 175.346 80.286 192.176 20.5195 201.324" stroke="white" stroke-width="0.768861" stroke-miterlimit="10"/>
<path d="M1599.33 454.739C1516.67 479.105 1430.13 474.776 1349.35 442.235C1272.36 410.759 1224.66 358.665 1183.34 322.681C1049.58 206.223 1006.7 100.075 941.848 90.922C901.275 85.1986 865.4 87.5506 835.645 94.7241C790.69 105.543 793.304 120.967 763.852 143.721C715.098 181.391 580.256 138.822 501.525 110.031C425.138 82.1024 421.58 76.2814 375.091 86.6295C305.341 102.152 274.088 125.965 193.107 160.871C136.88 185.393 78.5227 201.796 19.2109 209.751" stroke="white" stroke-width="0.768861" stroke-miterlimit="10"/>
<path d="M1599.33 470.556C1519.16 495.197 1434.94 491.433 1356.44 459.698C1280.08 428.339 1234.81 375.716 1190.92 338.183C1062.83 228.644 1020.39 132.629 955.602 120.634C907.464 111.736 864.969 98.1339 829.962 111.324C781.801 129.473 779.994 130.727 742.218 144.643C696.766 186.997 564.079 140.547 489.75 114.754C417.799 89.8632 414.257 85.7475 365.311 100.545C295.385 121.693 265.552 142.938 190.218 176.001C134.669 200.801 76.7658 216.774 17.918 223.529" stroke="white" stroke-width="0.768861" stroke-miterlimit="10"/>
<path d="M1599.33 486.744C1521.65 511.677 1439.75 508.533 1363.49 477.69C1287.77 446.488 1244.94 393.277 1198.46 354.215C1076.16 251.399 1034.2 164.634 969.435 150.875C913.592 139.037 867.138 120.262 824.251 128.474C768.954 139.057 764.059 134.902 720.553 146.113C672.868 183.802 547.918 142.644 478.057 120.006C410.541 98.1538 406.999 95.5473 355.612 114.99C285.416 141.488 257.098 160.478 187.396 191.661C132.521 216.741 75.0646 232.283 16.6904 237.837" stroke="white" stroke-width="0.768861" stroke-miterlimit="10"/>
<path d="M1599.33 503.247C1524.15 528.422 1444.61 525.866 1370.6 495.897C1295.52 464.832 1255.17 411.033 1206.08 370.463C1089.62 274.212 1048.14 196.228 983.121 181.332C919.736 166.809 868.476 154.893 818.607 145.819C757.024 134.608 748.186 139.253 698.953 147.779C648.954 180.92 531.758 145.035 466.219 125.475C403.139 106.66 399.597 105.444 345.769 129.65C275.445 161.282 248.531 178.314 184.508 207.556C130.305 232.906 73.2879 248.019 15.3984 252.379" stroke="white" stroke-width="0.768861" stroke-miterlimit="10"/>
<path d="M1599.33 519.965C1539.94 541.074 1459.74 548.188 1377.67 514.34C1303.18 483.609 1265.36 428.987 1213.65 386.947C1103.14 297.105 1062.09 227.606 996.89 212.025C925.801 195.052 869.259 178.452 812.909 163.4C745.425 145.349 730.747 132.747 677.303 149.68C621.927 167.222 515.595 147.72 454.461 131.179C395.814 115.382 392.241 115.5 336.004 144.526C265.329 181.117 240.026 196.424 181.54 223.667C145.181 240.6 90.3319 262.747 14.0254 267.137" stroke="white" stroke-width="0.768861" stroke-miterlimit="10"/>
<path d="M1599.33 536.977C1538.55 559.242 1461.6 564.867 1384.76 533.057C1310.91 502.483 1275.59 447.154 1221.23 403.703C1116.75 320.153 1076.29 258.944 1010.64 242.99C931.829 223.823 869.897 202.402 807.227 181.254C733.667 156.422 715.305 137.528 655.669 151.855C598.826 165.575 499.45 150.523 442.687 137.156C388.444 124.378 384.743 125.553 326.225 159.695C255.198 201.108 231.555 214.886 178.653 240.051C142.821 257.102 88.785 279.249 12.7334 282.189" stroke="white" stroke-width="0.768861" stroke-miterlimit="10"/>
<path d="M1599.33 554.185C1537.12 577.703 1463.47 581.741 1391.84 551.99C1318.63 521.572 1285.84 465.518 1228.81 420.676C1130.4 343.298 1090.49 290.303 1024.41 274.173C937.796 253.026 870.451 226.625 801.554 199.324C721.782 167.73 699.846 142.977 634.036 154.246C575.646 164.241 483.305 153.639 430.929 143.349C381.186 133.55 377.245 135.803 316.461 175.08C244.988 221.235 223.1 233.623 175.765 256.652C140.444 273.839 87.2539 296.065 11.4414 297.437" stroke="white" stroke-width="0.768861" stroke-miterlimit="10"/>
<path d="M1599.33 571.647C1535.79 596.283 1465.32 598.851 1398.92 571.158C1326.35 540.877 1296.13 484.039 1236.38 437.884C1144.13 366.583 1105.84 312.234 1038.16 305.591C942.217 296.163 870.966 251.105 795.872 217.63C709.833 179.294 681.005 129.434 612.403 156.873C555.098 179.863 467.224 156.873 419.156 149.778C373.878 143.016 369.699 146.211 306.682 190.681C234.715 241.501 214.677 252.673 172.877 273.487C138.083 290.832 85.7062 313.077 10.1494 312.94" stroke="white" stroke-width="0.768861" stroke-miterlimit="10"/>
<path d="M1599.33 589.678C1534.4 615.51 1467.19 616.49 1405.99 591.011C1334.07 560.868 1306.46 503.168 1243.96 455.778C1157.81 390.454 1120.05 345.69 1051.93 337.693C948.229 325.483 871.412 276.29 790.174 236.621C697.803 191.543 666.741 138.411 590.754 160.185C530.481 177.471 451.031 160.93 407.397 156.892C366.572 153.11 362.025 157.225 296.918 206.988C224.376 262.413 206.253 272.468 169.974 291.009C135.721 308.53 84.1583 330.756 8.84082 329.109" stroke="white" stroke-width="0.768861" stroke-miterlimit="10"/>
<path d="M1599.33 608.847C1533.03 635.874 1469.07 635.344 1413.08 611.786C1341.79 581.781 1316.82 523.14 1251.55 474.593C1171.68 415.188 1134.28 380.067 1065.68 370.718C954.196 355.529 871.828 302.415 784.493 256.553C685.711 204.675 652.08 149.386 569.121 164.438C506.04 175.883 434.918 165.81 395.623 164.928C359.281 164.105 354.319 169.122 287.138 224.215C213.99 284.208 197.797 293.262 167.086 309.471C133.376 327.228 82.5317 349.375 7.54883 346.219" stroke="white" stroke-width="0.768861" stroke-miterlimit="10"/>
<path d="M1599.33 628.348C1531.64 656.57 1470.94 654.493 1420.16 633.012C1349.51 603.124 1327.24 543.425 1259.12 493.859C1185.49 440.275 1148.56 414.856 1079.45 404.193C960.247 385.81 872.212 328.972 778.819 276.917C673.522 218.257 637.052 161.616 547.487 169.122C481.758 174.63 418.789 171.082 383.866 173.415C352.022 175.512 346.566 181.391 277.375 241.894C203.525 306.433 189.502 314.665 164.199 328.384C131.063 346.435 81.0801 368.464 6.25684 363.78" stroke="white" stroke-width="0.768861" stroke-miterlimit="10"/>
<path d="M1599.33 649.573C1530.26 678.972 1472.85 675.248 1427.24 655.943C1357.29 625.996 1337.74 565.259 1266.7 514.83C1199.34 467.008 1162.86 451.33 1093.2 439.374C966.336 417.599 872.558 357.254 773.198 298.986C661.525 233.544 621.337 184.449 525.918 175.511C457.924 169.161 402.739 178.059 372.156 183.606C344.763 188.584 338.812 195.366 267.659 261.258C193.091 330.364 181.221 337.694 161.375 348.963C128.861 367.445 79.5962 389.219 5.02832 383.026" stroke="white" stroke-width="0.768861" stroke-miterlimit="10"/>
<path d="M1599.33 670.583C1528.88 701.178 1474.72 695.925 1434.31 678.678C1365.01 648.867 1348.34 586.68 1274.27 535.605C1213.2 493.486 1177.18 487.587 1106.97 474.358C972.464 449.016 872.896 385.319 767.442 320.877C649.241 248.616 605.272 195.443 504.205 181.724C434.009 172.238 386.514 184.723 360.334 193.601C337.377 201.441 330.884 209.084 257.831 280.445C182.466 354.058 172.862 360.664 158.407 369.385C126.627 388.553 77.9846 409.779 3.65625 402.076" stroke="white" stroke-width="0.768861" stroke-miterlimit="10"/>
<path d="M1599.33 691.613C1527.54 723.383 1476.49 716.622 1441.39 701.413C1372.79 671.74 1359.04 607.788 1281.85 556.38C1227.07 519.887 1191.53 523.846 1120.72 509.343C978.653 480.237 873.211 413.307 761.762 342.75C637.035 263.688 589.158 206.36 482.571 187.918C409.901 175.355 370.304 191.289 348.559 203.597C330.005 214.102 323.034 222.784 248.051 299.633C171.872 377.773 164.613 383.712 155.519 389.788C124.776 410.347 76.4525 430.358 2.36328 421.146" stroke="white" stroke-width="0.768861" stroke-miterlimit="10"/>
</g>
</g>
<defs>
<clipPath id="clip0_111_350">
<rect width="1600" height="653" fill="white"/>
</clipPath>
</defs>
</svg>
