<svg width="25" height="25" viewBox="0 0 25 25" fill="none" xmlns="http://www.w3.org/2000/svg">
<path fill-rule="evenodd" clip-rule="evenodd" d="M12.5 25C19.4035 25 25 19.4035 25 12.5C25 5.59645 19.4035 0 12.5 0C5.59645 0 0 5.59645 0 12.5C0 19.4035 5.59645 25 12.5 25ZM6.79917 8.04918C7.1508 7.69755 7.62773 7.5 8.125 7.5H16.875C17.3723 7.5 17.8492 7.69755 18.2008 8.04918C18.5525 8.4008 18.75 8.87772 18.75 9.375V15.625C18.75 16.1223 18.5525 16.5992 18.2008 16.9508C17.8492 17.3025 17.3723 17.5 16.875 17.5H8.125C7.62773 17.5 7.1508 17.3025 6.79917 16.9508C6.44755 16.5992 6.25 16.1223 6.25 15.625V9.375C6.25 8.87772 6.44755 8.4008 6.79917 8.04918ZM12.9438 12.425L16.6187 8.75H8.38125L12.0562 12.425C12.1143 12.4836 12.1835 12.5301 12.2597 12.5618C12.3358 12.5935 12.4175 12.6099 12.5 12.6099C12.5825 12.6099 12.6642 12.5935 12.7403 12.5618C12.8165 12.5301 12.8857 12.4836 12.9438 12.425ZM17.3169 16.0669C17.4342 15.9497 17.5 15.7907 17.5 15.625V9.63125L13.825 13.3062C13.4734 13.6574 12.9969 13.8546 12.5 13.8546C12.0031 13.8546 11.5266 13.6574 11.175 13.3062L7.5 9.63125V15.625C7.5 15.7907 7.56585 15.9497 7.68305 16.0669C7.80028 16.1842 7.95925 16.25 8.125 16.25H16.875C17.0408 16.25 17.1997 16.1842 17.3169 16.0669Z" fill="white"/>
</svg>
