<svg width="60" height="60" viewBox="0 0 60 60" fill="none" xmlns="http://www.w3.org/2000/svg">
<g clip-path="url(#clip0_247_29838)">
<g clip-path="url(#clip1_247_29838)">
<path d="M30 60C46.5685 60 60 46.5685 60 30C60 13.4315 46.5685 0 30 0C13.4315 0 0 13.4315 0 30C0 46.5685 13.4315 60 30 60Z" fill="#FF9E2C"/>
<g clip-path="url(#clip2_247_29838)">
<path fill-rule="evenodd" clip-rule="evenodd" d="M30 50C41.0457 50 50 41.0457 50 30C50 18.9543 41.0457 10 30 10C18.9543 10 10 18.9543 10 30C10 41.0457 18.9543 50 30 50ZM38.7909 22.7778C38.945 21.0257 37.0949 21.7471 37.0949 21.7471C35.7288 22.3126 34.32 22.8873 32.8959 23.4682C28.4803 25.2693 23.9185 27.1301 20.0324 28.9614C17.9253 29.7344 19.1588 30.5074 19.1588 30.5074L22.4993 31.538C24.0411 32.0018 24.8634 31.4865 24.8634 31.4865L32.0584 26.591C34.628 24.839 34.0114 26.2819 33.3946 26.9002L27.9983 32.0533C27.176 32.7747 27.5872 33.3931 27.947 33.7023C28.9665 34.6019 31.4746 36.2478 32.5696 36.9664C32.8546 37.1533 33.0438 37.2775 33.0862 37.3094C33.3432 37.5156 34.7308 38.4431 35.6559 38.237C36.581 38.0309 36.6838 36.8457 36.6838 36.8457L37.9172 28.7553C38.1022 27.3508 38.3144 26.0008 38.4839 24.9226C38.644 23.9041 38.7659 23.1282 38.7909 22.7778Z" fill="#304EA0"/>
</g>
</g>
</g>
<defs>
<clipPath id="clip0_247_29838">
<rect width="60" height="60" fill="white"/>
</clipPath>
<clipPath id="clip1_247_29838">
<rect width="60" height="60" fill="white"/>
</clipPath>
<clipPath id="clip2_247_29838">
<rect width="40" height="40" fill="white" transform="translate(10 10)"/>
</clipPath>
</defs>
</svg>
