<svg width="25" height="25" viewBox="0 0 25 25" fill="none" xmlns="http://www.w3.org/2000/svg">
<path fill-rule="evenodd" clip-rule="evenodd" d="M12.5 25C19.4035 25 25 19.4035 25 12.5C25 5.59645 19.4035 0 12.5 0C5.59645 0 0 5.59645 0 12.5C0 19.4035 5.59645 25 12.5 25ZM17.9943 7.9861C18.0907 6.89108 16.9343 7.34195 16.9343 7.34195C16.0805 7.6954 15.2 8.05457 14.3099 8.41763C11.5502 9.54333 8.69905 10.7063 6.27028 11.8509C4.95333 12.334 5.72423 12.8171 5.72423 12.8171L7.81208 13.4613C8.77567 13.7511 9.28963 13.4291 9.28963 13.4291L13.7865 10.3694C15.3925 9.27437 15.0071 10.1762 14.6216 10.5626L11.249 13.7833C10.735 14.2342 10.992 14.6207 11.2169 14.8139C11.8541 15.3762 13.4216 16.4049 14.106 16.854C14.2841 16.9708 14.4024 17.0484 14.4289 17.0684C14.5895 17.1973 15.4567 17.7769 16.035 17.6481C16.6131 17.5193 16.6773 16.7785 16.6773 16.7785L17.4482 11.7221C17.5639 10.8443 17.6965 10.0005 17.8024 9.3266C17.9025 8.69007 17.9787 8.20512 17.9943 7.9861Z" fill="white"/>
</svg>
