<svg width="60" height="60" viewBox="0 0 60 60" fill="none" xmlns="http://www.w3.org/2000/svg">
<g clip-path="url(#clip0_53_8314)">
<path d="M30 60C46.5685 60 60 46.5685 60 30C60 13.4315 46.5685 0 30 0C13.4315 0 0 13.4315 0 30C0 46.5685 13.4315 60 30 60Z" fill="#FF9E2C"/>
<path d="M36.3257 31.2212C36.0444 31.22 35.7753 31.1063 35.5784 30.9054L30.3678 25.6949L25.1573 30.9054C24.6777 31.234 24.0225 31.1115 23.694 30.6319C23.4562 30.2848 23.4479 29.8293 23.6731 29.4738L29.6205 23.5159C30.0299 23.1032 30.6963 23.1005 31.1091 23.5098C31.1112 23.5119 31.1132 23.5139 31.1152 23.5159L37.0626 29.4738C37.4707 29.8844 37.4707 30.5475 37.0626 30.958C36.8599 31.1372 36.596 31.2314 36.3257 31.2212Z" fill="#283D88"/>
<path d="M30.3672 39.9998C29.7858 39.9998 29.3145 39.5285 29.3145 38.9472V24.2104C29.3145 23.629 29.7858 23.1577 30.3672 23.1577C30.9485 23.1577 31.4198 23.629 31.4198 24.2104V38.9472C31.4198 39.5285 30.9485 39.9998 30.3672 39.9998Z" fill="#283D88"/>
<path d="M36.6842 22.1053H24.0526C23.4713 22.1053 23 21.634 23 21.0526C23 20.4713 23.4713 20 24.0526 20H36.6842C37.2656 20 37.7369 20.4713 37.7369 21.0526C37.7369 21.634 37.2656 22.1053 36.6842 22.1053Z" fill="#283D88"/>
</g>
<defs>
<clipPath id="clip0_53_8314">
<rect width="60" height="60" fill="white"/>
</clipPath>
</defs>
</svg>
