<svg width="60" height="60" viewBox="0 0 60 60" fill="none" xmlns="http://www.w3.org/2000/svg">
<g clip-path="url(#clip0_53_8435)">
<path d="M30 60C46.5685 60 60 46.5685 60 30C60 13.4315 46.5685 0 30 0C13.4315 0 0 13.4315 0 30C0 46.5685 13.4315 60 30 60Z" fill="#FF9E2C"/>
<path d="M36.2506 29.7057H23.7493C22.0322 29.7057 20.6352 28.3081 20.6352 26.5902C20.6352 24.8736 22.0322 23.4771 23.7493 23.4771H31.563C32.0017 23.4771 32.3572 23.1215 32.3572 22.6829C32.3572 22.2443 32.0017 21.8887 31.563 21.8887H23.7493C21.1564 21.8887 19.0469 23.9977 19.0469 26.5902C19.0469 29.1839 21.1564 31.2941 23.7493 31.2941H36.2506C37.9677 31.2941 39.3647 32.6918 39.3647 34.4098C39.3647 36.1264 37.9677 37.5229 36.2506 37.5229H28.3695C27.9309 37.5229 27.5753 37.8785 27.5753 38.3171C27.5753 38.7557 27.9309 39.1113 28.3695 39.1113H36.2506C38.8435 39.1113 40.9531 37.0022 40.9531 34.4098C40.9531 31.8159 38.8435 29.7057 36.2506 29.7057Z" fill="#283D88"/>
<path d="M36.2513 29.7056H23.75" stroke="#283D88" stroke-width="0.1"/>
<path d="M23.7489 29.7059C22.0318 29.7059 20.6348 28.3082 20.6348 26.5903" stroke="#283D88" stroke-width="0.1"/>
<path d="M20.6348 26.5902C20.6348 24.8736 22.0318 23.4771 23.7489 23.4771" stroke="#283D88" stroke-width="0.1"/>
<path d="M23.75 23.4771H31.5637" stroke="#283D88" stroke-width="0.1"/>
<path d="M31.5645 23.4768C32.0032 23.4768 32.3587 23.1212 32.3587 22.6826" stroke="#283D88" stroke-width="0.1"/>
<path d="M32.3587 22.6829C32.3587 22.2443 32.0032 21.8887 31.5645 21.8887" stroke="#283D88" stroke-width="0.1"/>
<path d="M31.5637 21.8887H23.75" stroke="#283D88" stroke-width="0.1"/>
<path d="M23.7493 21.8887C21.1564 21.8887 19.0469 23.9977 19.0469 26.5902" stroke="#283D88" stroke-width="0.1"/>
<path d="M19.0469 26.5903C19.0469 29.184 21.1564 31.2943 23.7493 31.2943" stroke="#283D88" stroke-width="0.1"/>
<path d="M23.75 31.2939H36.2513" stroke="#283D88" stroke-width="0.1"/>
<path d="M36.252 31.2939C37.9691 31.2939 39.366 32.6916 39.366 34.4096" stroke="#283D88" stroke-width="0.1"/>
<path d="M39.366 34.4097C39.366 36.1263 37.9691 37.5228 36.252 37.5228" stroke="#283D88" stroke-width="0.1"/>
<path d="M36.2502 37.5229H28.3691" stroke="#283D88" stroke-width="0.1"/>
<path d="M28.3704 37.5229C27.9318 37.5229 27.5762 37.8786 27.5762 38.3172" stroke="#283D88" stroke-width="0.1"/>
<path d="M27.5762 38.3169C27.5762 38.7555 27.9318 39.1111 28.3704 39.1111" stroke="#283D88" stroke-width="0.1"/>
<path d="M28.3691 39.1113H36.2502" stroke="#283D88" stroke-width="0.1"/>
<path d="M36.252 39.1112C38.8448 39.1112 40.9544 37.0021 40.9544 34.4097" stroke="#283D88" stroke-width="0.1"/>
<path d="M40.9544 34.4096C40.9544 31.8158 38.8448 29.7056 36.252 29.7056" stroke="#283D88" stroke-width="0.1"/>
<path d="M23.6377 32.7656C21.7945 32.7656 20.2949 34.2653 20.2949 36.1084C20.2949 38.9532 22.9626 41.6537 23.0762 41.7672C23.2252 41.9162 23.4271 41.9998 23.6378 41.9998C23.8484 41.9998 24.0505 41.9162 24.1995 41.7672C24.313 41.6536 26.9805 38.9532 26.9805 36.1084C26.9803 34.2653 25.4809 32.7656 23.6377 32.7656ZM23.6377 40.004C22.9519 39.1574 21.8833 37.5989 21.8833 36.1084C21.8833 35.141 22.6704 34.354 23.6377 34.354C24.605 34.354 25.3919 35.1411 25.3919 36.1084C25.3919 37.5989 24.3234 39.1574 23.6377 40.004Z" fill="#283D88"/>
<path d="M23.6377 32.7656C21.7945 32.7656 20.2949 34.2653 20.2949 36.1084" stroke="#283D88" stroke-width="0.1"/>
<path d="M20.2949 36.1084C20.2949 38.9532 22.9626 41.6536 23.0762 41.7672" stroke="#283D88" stroke-width="0.1"/>
<path d="M23.0762 41.7671C23.2252 41.9161 23.4271 41.9997 23.6378 41.9997" stroke="#283D88" stroke-width="0.1"/>
<path d="M23.6387 41.9997C23.8493 41.9997 24.0514 41.9161 24.2003 41.7671" stroke="#283D88" stroke-width="0.1"/>
<path d="M24.1992 41.7672C24.3127 41.6535 26.9802 38.9532 26.9802 36.1084" stroke="#283D88" stroke-width="0.1"/>
<path d="M26.9815 36.1084C26.9813 34.2653 25.4819 32.7656 23.6387 32.7656" stroke="#283D88" stroke-width="0.1"/>
<path d="M23.6372 40.004C22.9514 39.1573 21.8828 37.5988 21.8828 36.1084" stroke="#283D88" stroke-width="0.1"/>
<path d="M21.8828 36.1084C21.8828 35.141 22.6699 34.354 23.6372 34.354" stroke="#283D88" stroke-width="0.1"/>
<path d="M23.6387 34.354C24.606 34.354 25.3929 35.1411 25.3929 36.1084" stroke="#283D88" stroke-width="0.1"/>
<path d="M25.3929 36.1084C25.3929 37.5988 24.3243 39.1573 23.6387 40.004" stroke="#283D88" stroke-width="0.1"/>
<path d="M36.2959 28.234C36.4991 28.234 36.7023 28.1565 36.8574 28.0016C36.971 27.888 39.64 25.1877 39.64 22.3427C39.64 20.4995 38.1398 19 36.2959 19C34.4527 19 32.9531 20.4995 32.9531 22.3426C32.9531 25.1875 35.6208 27.8878 35.7345 28.0013C35.8894 28.1565 36.0926 28.234 36.2959 28.234ZM36.2959 20.5884C37.2641 20.5884 38.0516 21.3754 38.0516 22.3426C38.0516 23.8331 36.9821 25.3918 36.296 26.2383C35.6103 25.3918 34.5415 23.8332 34.5415 22.3426C34.5414 21.3754 35.3285 20.5884 36.2959 20.5884Z" fill="#283D88"/>
<path d="M36.2969 28.2339C36.5001 28.2339 36.7033 28.1564 36.8583 28.0015" stroke="#283D88" stroke-width="0.1"/>
<path d="M36.8574 28.0016C36.971 27.8881 39.6401 25.1878 39.6401 22.3428" stroke="#283D88" stroke-width="0.1"/>
<path d="M39.641 22.3427C39.641 20.4995 38.1408 19 36.2969 19" stroke="#283D88" stroke-width="0.1"/>
<path d="M36.2959 19C34.4527 19 32.9531 20.4995 32.9531 22.3426" stroke="#283D88" stroke-width="0.1"/>
<path d="M32.9531 22.3428C32.9531 25.1877 35.6208 27.888 35.7345 28.0015" stroke="#283D88" stroke-width="0.1"/>
<path d="M35.7344 28.0015C35.8893 28.1566 36.0925 28.2341 36.2958 28.2341" stroke="#283D88" stroke-width="0.1"/>
<path d="M36.2969 20.5884C37.2651 20.5884 38.0526 21.3754 38.0526 22.3426" stroke="#283D88" stroke-width="0.1"/>
<path d="M38.0525 22.3428C38.0525 23.8333 36.983 25.392 36.2969 26.2385" stroke="#283D88" stroke-width="0.1"/>
<path d="M36.2955 26.2385C35.6098 25.392 34.541 23.8334 34.541 22.3428" stroke="#283D88" stroke-width="0.1"/>
<path d="M34.541 22.3426C34.5409 21.3754 35.328 20.5884 36.2954 20.5884" stroke="#283D88" stroke-width="0.1"/>
</g>
<defs>
<clipPath id="clip0_53_8435">
<rect width="60" height="60" fill="white"/>
</clipPath>
</defs>
</svg>
