<svg width="60" height="60" viewBox="0 0 60 60" fill="none" xmlns="http://www.w3.org/2000/svg">
<g clip-path="url(#clip0_53_8383)">
<path d="M30 60C46.5685 60 60 46.5685 60 30C60 13.4315 46.5685 0 30 0C13.4315 0 0 13.4315 0 30C0 46.5685 13.4315 60 30 60Z" fill="#FF9E2C"/>
<path d="M41.7155 26.3632L38.8467 21.1556C38.4529 20.4419 37.715 20.0008 36.9152 20H23.0839C22.2833 20 21.5454 20.4419 21.1516 21.1556L18.2836 26.3641C17.7979 27.2529 17.9468 28.3643 18.6481 29.0863L28.8109 39.5041C29.4373 40.1645 30.5585 40.1661 31.1842 39.5041C31.1899 39.5075 33.4696 37.1579 33.4736 37.1579L41.3526 29.0863C42.0539 28.3634 42.202 27.252 41.7155 26.3632ZM32.3232 21.2506L33.7665 27.1345H26.2293L27.6751 21.2506H32.3232ZM19.5105 28.2017C19.1957 27.8765 19.1289 27.3771 19.3478 26.9777L22.2158 21.7701C22.3923 21.4499 22.7243 21.2515 23.0839 21.2506H26.4172L25.026 26.916C25.0081 26.9877 25.0016 27.0619 24.9894 27.1345H22.2849C21.9481 27.1345 21.6747 27.4146 21.6747 27.7598C21.6747 28.105 21.9481 28.3851 22.2849 28.3851H25.0577C25.0829 28.4752 25.1057 28.5669 25.1399 28.6544L28.6148 37.5314L19.5105 28.2017ZM32.6104 36.2741L30.3461 38.5953L26.3505 28.3851H33.6494L31.041 35.0518C30.7473 35.8122 31.8741 36.275 32.1751 35.5179L34.86 28.6544C34.895 28.5669 34.917 28.4752 34.943 28.3851H40.3096L32.6104 36.2741ZM35.0105 27.1345C34.9983 27.0619 34.9918 26.9877 34.9739 26.916L33.5827 21.2506H36.9152C37.2748 21.2506 37.6068 21.4491 37.7841 21.7701L40.6505 26.9777C40.6781 27.0278 40.6871 27.0819 40.7058 27.1345H35.0105Z" fill="#283D88"/>
<path d="M41.7165 26.3629L38.8477 21.1553" stroke="#283D88" stroke-width="0.1"/>
<path d="M38.8456 21.1556C38.4519 20.4419 37.7139 20.0008 36.9141 20" stroke="#283D88" stroke-width="0.1"/>
<path d="M36.9153 20H23.084" stroke="#283D88" stroke-width="0.1"/>
<path d="M23.0846 20C22.284 20 21.5461 20.4419 21.1523 21.1556" stroke="#283D88" stroke-width="0.1"/>
<path d="M21.1532 21.1553L18.2852 26.3638" stroke="#283D88" stroke-width="0.1"/>
<path d="M18.2836 26.3643C17.7979 27.253 17.9468 28.3644 18.6481 29.0865" stroke="#283D88" stroke-width="0.1"/>
<path d="M18.6484 29.0859L28.8112 39.5038" stroke="#283D88" stroke-width="0.1"/>
<path d="M28.8105 39.5039C29.437 40.1642 30.5582 40.1659 31.1838 39.5039" stroke="#283D88" stroke-width="0.1"/>
<path d="M31.1836 39.5044C31.1893 39.5077 33.469 37.1582 33.4731 37.1582" stroke="#283D88" stroke-width="0.1"/>
<path d="M33.4727 37.1576L41.3517 29.0859" stroke="#283D88" stroke-width="0.1"/>
<path d="M41.3516 29.0863C42.053 28.3635 42.201 27.2521 41.7145 26.3633" stroke="#283D88" stroke-width="0.1"/>
<path d="M32.3223 21.251L33.7657 27.1348" stroke="#283D88" stroke-width="0.1"/>
<path d="M33.7677 27.1348H26.2305" stroke="#283D88" stroke-width="0.1"/>
<path d="M26.2305 27.1348L27.6763 21.251" stroke="#283D88" stroke-width="0.1"/>
<path d="M27.6758 21.251H32.3239" stroke="#283D88" stroke-width="0.1"/>
<path d="M19.5114 28.2015C19.1966 27.8763 19.1299 27.3769 19.3487 26.9775" stroke="#283D88" stroke-width="0.1"/>
<path d="M19.3477 26.9777L22.2156 21.77" stroke="#283D88" stroke-width="0.1"/>
<path d="M22.2148 21.7704C22.3914 21.4502 22.7233 21.2518 23.0829 21.251" stroke="#283D88" stroke-width="0.1"/>
<path d="M23.084 21.251H26.4173" stroke="#283D88" stroke-width="0.1"/>
<path d="M26.4185 21.251L25.0273 26.9164" stroke="#283D88" stroke-width="0.1"/>
<path d="M25.0268 26.916C25.0089 26.9877 25.0024 27.0619 24.9902 27.1345" stroke="#283D88" stroke-width="0.1"/>
<path d="M24.9896 27.1348H22.2852" stroke="#283D88" stroke-width="0.1"/>
<path d="M22.284 27.1348C21.9472 27.1348 21.6738 27.4149 21.6738 27.7601" stroke="#283D88" stroke-width="0.1"/>
<path d="M21.6738 27.7598C21.6738 28.1049 21.9472 28.3851 22.284 28.3851" stroke="#283D88" stroke-width="0.1"/>
<path d="M22.2852 28.3848H25.0579" stroke="#283D88" stroke-width="0.1"/>
<path d="M25.0566 28.3848C25.0818 28.4748 25.1046 28.5665 25.1388 28.6541" stroke="#283D88" stroke-width="0.1"/>
<path d="M25.1387 28.6543L28.6137 37.5313" stroke="#283D88" stroke-width="0.1"/>
<path d="M28.6141 37.5314L19.5098 28.2017" stroke="#283D88" stroke-width="0.1"/>
<path d="M32.612 36.2744L30.3477 38.5956" stroke="#283D88" stroke-width="0.1"/>
<path d="M30.3472 38.595L26.3516 28.3848" stroke="#283D88" stroke-width="0.1"/>
<path d="M26.3516 28.3848H33.6505" stroke="#283D88" stroke-width="0.1"/>
<path d="M33.6494 28.3848L31.041 35.0515" stroke="#283D88" stroke-width="0.1"/>
<path d="M31.0406 35.0518C30.7469 35.8121 31.8737 36.2749 32.1747 35.5178" stroke="#283D88" stroke-width="0.1"/>
<path d="M32.1758 35.5178L34.8607 28.6543" stroke="#283D88" stroke-width="0.1"/>
<path d="M34.8594 28.6541C34.8943 28.5665 34.9163 28.4748 34.9424 28.3848" stroke="#283D88" stroke-width="0.1"/>
<path d="M34.9434 28.3848H40.3099" stroke="#283D88" stroke-width="0.1"/>
<path d="M40.3104 28.3848L32.6113 36.2738" stroke="#283D88" stroke-width="0.1"/>
<path d="M35.0093 27.1345C34.9971 27.0619 34.9906 26.9877 34.9727 26.916" stroke="#283D88" stroke-width="0.1"/>
<path d="M34.9733 26.9164L33.582 21.251" stroke="#283D88" stroke-width="0.1"/>
<path d="M33.582 21.251H36.9146" stroke="#283D88" stroke-width="0.1"/>
<path d="M36.9141 21.251C37.2738 21.251 37.6057 21.4494 37.7831 21.7704" stroke="#283D88" stroke-width="0.1"/>
<path d="M37.7852 21.77L40.6515 26.9777" stroke="#283D88" stroke-width="0.1"/>
<path d="M40.6504 26.9775C40.6781 27.0276 40.687 27.0818 40.7057 27.1343" stroke="#283D88" stroke-width="0.1"/>
<path d="M40.7051 27.1348H35.0098" stroke="#283D88" stroke-width="0.1"/>
</g>
<defs>
<clipPath id="clip0_53_8383">
<rect width="60" height="60" fill="white"/>
</clipPath>
</defs>
</svg>
