<svg width="60" height="60" viewBox="0 0 60 60" fill="none" xmlns="http://www.w3.org/2000/svg">
<g clip-path="url(#clip0_51_5382)">
<path d="M30 60C46.5685 60 60 46.5685 60 30C60 13.4315 46.5685 0 30 0C13.4315 0 0 13.4315 0 30C0 46.5685 13.4315 60 30 60Z" fill="#FF9E2C"/>
<path d="M35.1807 39C34.9178 39.0002 34.6588 38.9366 34.4264 38.8148L30.1088 36.5673C30.0753 36.5496 30.038 36.5403 30.0001 36.5403C29.9621 36.5403 29.9248 36.5496 29.8913 36.5673L25.5744 38.8148C25.3069 38.9542 25.0053 39.0167 24.7038 38.9952C24.4023 38.9736 24.1129 38.869 23.8684 38.693C23.6238 38.517 23.4338 38.2768 23.32 37.9995C23.2061 37.7221 23.1729 37.4188 23.2241 37.1237L24.0484 32.3633C24.0548 32.326 24.0518 32.2877 24.0397 32.2519C24.0276 32.216 24.0068 32.1836 23.9792 32.1575L20.4894 28.7843C20.2727 28.5752 20.1195 28.3102 20.0471 28.0193C19.9747 27.7284 19.986 27.4233 20.0797 27.1384C20.1734 26.8536 20.3459 26.6004 20.5774 26.4076C20.809 26.2148 21.0904 26.0902 21.3899 26.0477L26.2131 25.3541C26.2506 25.3487 26.2863 25.3343 26.3169 25.3122C26.3476 25.2901 26.3723 25.2609 26.389 25.2272L28.5454 20.8949C28.679 20.6263 28.8858 20.4001 29.1424 20.242C29.3991 20.0838 29.6953 20 29.9976 20C30.2999 20 30.5962 20.0838 30.8528 20.242C31.1095 20.4001 31.3163 20.6263 31.4499 20.8949L33.6076 25.2258C33.6245 25.2594 33.6492 25.2885 33.6799 25.3106C33.7105 25.3327 33.7461 25.3471 33.7835 25.3527L38.6109 26.047C38.9102 26.0897 39.1915 26.2145 39.4229 26.4073C39.6543 26.6002 39.8266 26.8533 39.9203 27.138C40.014 27.4227 40.0253 27.7278 39.9531 28.0186C39.8808 28.3094 39.7278 28.5744 39.5114 28.7836L36.0182 32.1547C35.9906 32.1809 35.9699 32.2133 35.9578 32.2492C35.9458 32.285 35.9427 32.3233 35.9489 32.3606L36.7732 37.121C36.8129 37.351 36.8014 37.5868 36.7397 37.812C36.678 38.0372 36.5675 38.2463 36.4158 38.4249C36.2642 38.6035 36.0751 38.7472 35.8617 38.8461C35.6482 38.9449 35.4156 38.9965 35.18 38.9973L35.1807 39ZM30.0001 35.1678C30.2628 35.1678 30.5215 35.2313 30.7537 35.353L35.0706 37.5998C35.1088 37.6214 35.1526 37.6313 35.1965 37.6283C35.2404 37.6252 35.2824 37.6094 35.3172 37.5827C35.3535 37.558 35.3817 37.5233 35.3983 37.483C35.4149 37.4426 35.4192 37.3983 35.4107 37.3556L34.5857 32.5945C34.5416 32.3383 34.5609 32.0753 34.642 31.828C34.7231 31.5808 34.8635 31.3568 35.0512 31.1751L38.5444 27.8032C38.5756 27.773 38.5976 27.7347 38.608 27.6927C38.6184 27.6507 38.6167 27.6067 38.6032 27.5656C38.5896 27.5245 38.5648 27.488 38.5314 27.4601C38.498 27.4323 38.4574 27.4143 38.4142 27.4081L33.5875 26.7131C33.3277 26.6759 33.0809 26.5765 32.8685 26.4236C32.656 26.2707 32.4844 26.069 32.3684 25.8357L30.2079 21.5041C30.1885 21.4653 30.1586 21.4327 30.1215 21.4098C30.0844 21.387 30.0416 21.3749 29.998 21.3749C29.9543 21.3749 29.9115 21.387 29.8744 21.4098C29.8373 21.4327 29.8074 21.4653 29.7881 21.5041L27.6317 25.8343C27.5156 26.0677 27.3439 26.2695 27.1314 26.4224C26.9188 26.5753 26.6719 26.6746 26.4119 26.7118L21.5859 27.4081C21.5426 27.4141 21.5019 27.4321 21.4684 27.46C21.435 27.4878 21.4101 27.5244 21.3966 27.5656C21.3831 27.6068 21.3815 27.6509 21.3921 27.6929C21.4027 27.7349 21.4249 27.7731 21.4564 27.8032L24.9489 31.1751C25.1366 31.3568 25.277 31.5808 25.3581 31.828C25.4392 32.0753 25.4585 32.3383 25.4144 32.5945L24.5894 37.3556C24.5819 37.3984 24.5867 37.4423 24.6032 37.4826C24.6198 37.5228 24.6474 37.5576 24.6829 37.583C24.7184 37.6085 24.7604 37.6235 24.8041 37.6265C24.8479 37.6295 24.8915 37.6202 24.9302 37.5998L29.2464 35.3524C29.4788 35.2312 29.7374 35.1678 30.0001 35.1678Z" fill="#3A62BA"/>
<path d="M35.1801 39.0001C34.9172 39.0003 34.6582 38.9367 34.4258 38.8149" stroke="#3A62BA" stroke-width="0.4"/>
<path d="M34.4269 38.8148L30.1094 36.5674" stroke="#3A62BA" stroke-width="0.4"/>
<path d="M30.1088 36.5675C30.0753 36.5498 30.0379 36.5405 30 36.5405" stroke="#3A62BA" stroke-width="0.4"/>
<path d="M29.9994 36.5405C29.9614 36.5405 29.9241 36.5498 29.8906 36.5675" stroke="#3A62BA" stroke-width="0.4"/>
<path d="M29.8911 36.5674L25.5742 38.8148" stroke="#3A62BA" stroke-width="0.4"/>
<path d="M25.5737 38.8149C25.3062 38.9543 25.0046 39.0168 24.7031 38.9953" stroke="#3A62BA" stroke-width="0.4"/>
<path d="M24.7045 38.9951C24.403 38.9735 24.1136 38.8689 23.8691 38.6929" stroke="#3A62BA" stroke-width="0.4"/>
<path d="M23.8687 38.6931C23.6241 38.5171 23.4342 38.2769 23.3203 37.9995" stroke="#3A62BA" stroke-width="0.4"/>
<path d="M23.3204 37.9997C23.2066 37.7224 23.1734 37.419 23.2246 37.124" stroke="#3A62BA" stroke-width="0.4"/>
<path d="M23.2227 37.1237L24.047 32.3633" stroke="#3A62BA" stroke-width="0.4"/>
<path d="M24.0478 32.3634C24.0541 32.3261 24.0511 32.2878 24.0391 32.252" stroke="#3A62BA" stroke-width="0.4"/>
<path d="M24.039 32.252C24.0269 32.2161 24.0062 32.1837 23.9785 32.1577" stroke="#3A62BA" stroke-width="0.4"/>
<path d="M23.9799 32.1574L20.4902 28.7842" stroke="#3A62BA" stroke-width="0.4"/>
<path d="M20.4892 28.7844C20.2725 28.5754 20.1193 28.3104 20.0469 28.0195" stroke="#3A62BA" stroke-width="0.4"/>
<path d="M20.0471 28.0191C19.9747 27.7282 19.986 27.4231 20.0797 27.1382" stroke="#3A62BA" stroke-width="0.4"/>
<path d="M20.0801 27.1385C20.1738 26.8537 20.3462 26.6005 20.5778 26.4077" stroke="#3A62BA" stroke-width="0.4"/>
<path d="M20.5781 26.4074C20.8097 26.2146 21.0911 26.0899 21.3906 26.0474" stroke="#3A62BA" stroke-width="0.4"/>
<path d="M21.3887 26.0476L26.212 25.354" stroke="#3A62BA" stroke-width="0.4"/>
<path d="M26.2129 25.3544C26.2504 25.349 26.2861 25.3346 26.3167 25.3125" stroke="#3A62BA" stroke-width="0.4"/>
<path d="M26.3164 25.312C26.3471 25.2898 26.3718 25.2608 26.3885 25.2271" stroke="#3A62BA" stroke-width="0.4"/>
<path d="M26.3906 25.2273L28.5469 20.895" stroke="#3A62BA" stroke-width="0.4"/>
<path d="M28.5449 20.8946C28.6785 20.6261 28.8853 20.3999 29.142 20.2417" stroke="#3A62BA" stroke-width="0.4"/>
<path d="M29.1426 20.242C29.3992 20.0838 29.6955 20 29.9978 20" stroke="#3A62BA" stroke-width="0.4"/>
<path d="M29.998 20C30.3002 20 30.5965 20.0838 30.8531 20.242" stroke="#3A62BA" stroke-width="0.4"/>
<path d="M30.8516 20.2417C31.1083 20.3999 31.3151 20.6261 31.4487 20.8946" stroke="#3A62BA" stroke-width="0.4"/>
<path d="M31.4492 20.895L33.6069 25.2259" stroke="#3A62BA" stroke-width="0.4"/>
<path d="M33.6074 25.2256C33.6243 25.2592 33.6491 25.2883 33.6797 25.3104" stroke="#3A62BA" stroke-width="0.4"/>
<path d="M33.6797 25.3105C33.7103 25.3326 33.7459 25.3471 33.7834 25.3527" stroke="#3A62BA" stroke-width="0.4"/>
<path d="M33.7852 25.353L38.6126 26.0473" stroke="#3A62BA" stroke-width="0.4"/>
<path d="M38.6094 26.0469C38.9087 26.0896 39.19 26.2144 39.4214 26.4072" stroke="#3A62BA" stroke-width="0.4"/>
<path d="M39.4238 26.4072C39.6551 26.6 39.8274 26.8531 39.9211 27.1379" stroke="#3A62BA" stroke-width="0.4"/>
<path d="M39.9199 27.1377C40.0136 27.4225 40.025 27.7275 39.9527 28.0183" stroke="#3A62BA" stroke-width="0.4"/>
<path d="M39.9534 28.0186C39.8811 28.3094 39.7281 28.5744 39.5117 28.7835" stroke="#3A62BA" stroke-width="0.4"/>
<path d="M39.5127 28.7837L36.0195 32.1549" stroke="#3A62BA" stroke-width="0.4"/>
<path d="M36.0174 32.1548C35.9898 32.1809 35.9691 32.2133 35.957 32.2492" stroke="#3A62BA" stroke-width="0.4"/>
<path d="M35.9574 32.2495C35.9453 32.2853 35.9422 32.3236 35.9484 32.3609" stroke="#3A62BA" stroke-width="0.4"/>
<path d="M35.9492 32.3608L36.7735 37.1212" stroke="#3A62BA" stroke-width="0.4"/>
<path d="M36.7718 37.1206C36.8115 37.3507 36.8001 37.5865 36.7383 37.8117" stroke="#3A62BA" stroke-width="0.4"/>
<path d="M36.7399 37.812C36.6782 38.0372 36.5677 38.2464 36.416 38.425" stroke="#3A62BA" stroke-width="0.4"/>
<path d="M36.4155 38.4248C36.2639 38.6034 36.0747 38.7471 35.8613 38.846" stroke="#3A62BA" stroke-width="0.4"/>
<path d="M35.8613 38.8457C35.6479 38.9446 35.4153 38.9962 35.1797 38.9969" stroke="#3A62BA" stroke-width="0.4"/>
<path d="M35.1797 38.9971L35.1804 38.9999" stroke="#3A62BA" stroke-width="0.4"/>
<path d="M30 35.1675C30.2627 35.1675 30.5214 35.2311 30.7537 35.3528" stroke="#3A62BA" stroke-width="0.4"/>
<path d="M30.7539 35.353L35.0708 37.5998" stroke="#3A62BA" stroke-width="0.4"/>
<path d="M35.0703 37.6001C35.1085 37.6217 35.1523 37.6316 35.1962 37.6285" stroke="#3A62BA" stroke-width="0.4"/>
<path d="M35.1973 37.6286C35.2412 37.6256 35.2832 37.6097 35.318 37.583" stroke="#3A62BA" stroke-width="0.4"/>
<path d="M35.3184 37.5826C35.3547 37.5579 35.3829 37.5233 35.3995 37.4829" stroke="#3A62BA" stroke-width="0.4"/>
<path d="M35.3984 37.4829C35.4151 37.4425 35.4194 37.3982 35.4108 37.3555" stroke="#3A62BA" stroke-width="0.4"/>
<path d="M35.4109 37.3558L34.5859 32.5947" stroke="#3A62BA" stroke-width="0.4"/>
<path d="M34.5855 32.5946C34.5415 32.3383 34.5608 32.0753 34.6419 31.8281" stroke="#3A62BA" stroke-width="0.4"/>
<path d="M34.6426 31.8278C34.7237 31.5806 34.8641 31.3565 35.0517 31.1748" stroke="#3A62BA" stroke-width="0.4"/>
<path d="M35.0508 31.1751L38.544 27.8032" stroke="#3A62BA" stroke-width="0.4"/>
<path d="M38.543 27.8029C38.5742 27.7727 38.5962 27.7344 38.6066 27.6924" stroke="#3A62BA" stroke-width="0.4"/>
<path d="M38.6065 27.693C38.6168 27.651 38.6152 27.607 38.6016 27.5659" stroke="#3A62BA" stroke-width="0.4"/>
<path d="M38.6031 27.5655C38.5895 27.5244 38.5646 27.4878 38.5312 27.46" stroke="#3A62BA" stroke-width="0.4"/>
<path d="M38.5312 27.4602C38.4978 27.4324 38.4573 27.4144 38.4141 27.4082" stroke="#3A62BA" stroke-width="0.4"/>
<path d="M38.4126 27.4079L33.5859 26.7129" stroke="#3A62BA" stroke-width="0.4"/>
<path d="M33.5881 26.7133C33.3283 26.676 33.0815 26.5767 32.8691 26.4238" stroke="#3A62BA" stroke-width="0.4"/>
<path d="M32.8691 26.4238C32.6567 26.271 32.4851 26.0692 32.3691 25.8359" stroke="#3A62BA" stroke-width="0.4"/>
<path d="M32.3675 25.836L30.207 21.5044" stroke="#3A62BA" stroke-width="0.4"/>
<path d="M30.2074 21.5039C30.1881 21.4652 30.1582 21.4325 30.1211 21.4097" stroke="#3A62BA" stroke-width="0.4"/>
<path d="M30.1216 21.4099C30.0845 21.3871 30.0417 21.375 29.998 21.375" stroke="#3A62BA" stroke-width="0.4"/>
<path d="M29.9986 21.375C29.9549 21.375 29.9121 21.3871 29.875 21.4099" stroke="#3A62BA" stroke-width="0.4"/>
<path d="M29.8754 21.4097C29.8383 21.4325 29.8084 21.4652 29.7891 21.5039" stroke="#3A62BA" stroke-width="0.4"/>
<path d="M29.7873 21.5044L27.6309 25.8346" stroke="#3A62BA" stroke-width="0.4"/>
<path d="M27.6313 25.834C27.5152 26.0674 27.3435 26.2692 27.1309 26.4221" stroke="#3A62BA" stroke-width="0.4"/>
<path d="M27.1316 26.4224C26.919 26.5752 26.6721 26.6746 26.4121 26.7117" stroke="#3A62BA" stroke-width="0.4"/>
<path d="M26.4119 26.7119L21.5859 27.4082" stroke="#3A62BA" stroke-width="0.4"/>
<path d="M21.5861 27.4082C21.5428 27.4142 21.5021 27.4322 21.4688 27.4601" stroke="#3A62BA" stroke-width="0.4"/>
<path d="M21.4684 27.46C21.4349 27.4878 21.41 27.5244 21.3965 27.5656" stroke="#3A62BA" stroke-width="0.4"/>
<path d="M21.3982 27.5659C21.3847 27.6071 21.3831 27.6512 21.3937 27.6932" stroke="#3A62BA" stroke-width="0.4"/>
<path d="M21.3926 27.6929C21.4032 27.7349 21.4254 27.7731 21.4569 27.8032" stroke="#3A62BA" stroke-width="0.4"/>
<path d="M21.457 27.8032L24.9496 31.1751" stroke="#3A62BA" stroke-width="0.4"/>
<path d="M24.9492 31.1748C25.1369 31.3565 25.2773 31.5806 25.3584 31.8278" stroke="#3A62BA" stroke-width="0.4"/>
<path d="M25.3574 31.8281C25.4385 32.0753 25.4578 32.3383 25.4137 32.5946" stroke="#3A62BA" stroke-width="0.4"/>
<path d="M25.4148 32.5947L24.5898 37.3558" stroke="#3A62BA" stroke-width="0.4"/>
<path d="M24.5894 37.3555C24.5819 37.3982 24.5867 37.4422 24.6032 37.4825" stroke="#3A62BA" stroke-width="0.4"/>
<path d="M24.6016 37.4829C24.6181 37.5231 24.6457 37.5579 24.6812 37.5833" stroke="#3A62BA" stroke-width="0.4"/>
<path d="M24.6836 37.583C24.7191 37.6085 24.7611 37.6235 24.8049 37.6265" stroke="#3A62BA" stroke-width="0.4"/>
<path d="M24.8047 37.6268C24.8484 37.6297 24.8921 37.6205 24.9308 37.6001" stroke="#3A62BA" stroke-width="0.4"/>
<path d="M24.9297 37.5999L29.2458 35.3525" stroke="#3A62BA" stroke-width="0.4"/>
<path d="M29.2461 35.3521C29.4784 35.2309 29.7371 35.1675 29.9997 35.1675" stroke="#3A62BA" stroke-width="0.4"/>
</g>
<defs>
<clipPath id="clip0_51_5382">
<rect width="60" height="60" fill="white"/>
</clipPath>
</defs>
</svg>
