<svg width="60" height="60" viewBox="0 0 60 60" fill="none" xmlns="http://www.w3.org/2000/svg">
<g clip-path="url(#clip0_53_8323)">
<path d="M30 60C46.5685 60 60 46.5685 60 30C60 13.4315 46.5685 0 30 0C13.4315 0 0 13.4315 0 30C0 46.5685 13.4315 60 30 60Z" fill="#FF9E2C"/>
<path d="M40.1564 29.1515H34.232C32.3751 29.1515 30.8467 30.68 30.8467 32.5368C30.8467 34.3937 32.3751 35.9222 34.232 35.9222H37.6173V38.4612C37.6173 38.9258 37.2356 39.3075 36.771 39.3075H23.2296C21.8366 39.3075 20.6906 38.1616 20.6906 36.7685V24.0735C20.6906 22.6804 21.8366 21.5345 23.2296 21.5345H24.9223C25.3869 21.5345 25.7686 21.1528 25.7686 20.6881C25.7686 20.2235 25.3869 19.8418 24.9223 19.8418H23.2296C20.9081 19.8418 18.998 21.752 18.998 24.0735V36.7685C18.998 39.09 20.9081 41.0002 23.2296 41.0002H36.771C38.1641 41.0002 39.31 39.8543 39.31 38.4612V35.9222H40.1564C40.621 35.9222 41.0027 35.5405 41.0027 35.0758V29.9978C41.0027 29.5332 40.621 29.1515 40.1564 29.1515ZM39.31 34.2295H34.232C33.3036 34.2295 32.5393 33.4653 32.5393 32.5368C32.5393 31.6084 33.3036 30.8442 34.232 30.8442H39.31V34.2295Z" fill="#283D88"/>
<path d="M22.9234 23.2865C21.9789 23.6986 22.2912 24.9199 23.2281 24.9199H36.7695C37.2341 24.9199 37.6158 25.3016 37.6158 25.7662V26.6126C37.6158 27.0772 37.9975 27.4589 38.4622 27.4589C38.9268 27.4589 39.3085 27.0772 39.3085 26.6126V25.7662C39.3077 25.0934 39.0402 24.4477 38.5637 23.972C38.0881 23.4955 37.4423 23.2281 36.7695 23.2272H36.4987L35.0176 19.5288C34.8458 19.1014 34.3549 18.8881 33.9258 19.0548L22.9234 23.2865ZM34.6706 23.2272H27.7899L33.7565 20.9337L34.6706 23.2272Z" fill="#283D88"/>
</g>
<defs>
<clipPath id="clip0_53_8323">
<rect width="60" height="60" fill="white"/>
</clipPath>
</defs>
</svg>
