<svg width="60" height="60" viewBox="0 0 60 60" fill="none" xmlns="http://www.w3.org/2000/svg">
<g clip-path="url(#clip0_53_8332)">
<path d="M30 60C46.5685 60 60 46.5685 60 30C60 13.4315 46.5685 0 30 0C13.4315 0 0 13.4315 0 30C0 46.5685 13.4315 60 30 60Z" fill="#FF9E2C"/>
<path d="M42.7242 31.0549L40.8203 29.1139V27.2574C41.1164 27.0042 41.2434 26.6245 41.2434 26.2447C41.2434 25.6962 40.9472 25.2321 40.4395 24.9789L29.7352 20.1266C29.3967 19.9578 28.9736 19.9578 28.6351 20.1266L17.8039 24.8945C17.2962 25.1055 17 25.6118 17 26.1603C17 26.7089 17.2962 27.2152 17.8039 27.4262L21.6117 29.1561V34.4726C21.6117 37.5105 24.0657 40 27.112 40H31.0891C34.1354 40 36.5893 37.5105 36.5893 34.4726V29.2405L38.8317 28.2278L39.2971 28.0169V29.1983L37.4778 31.0549C37.097 31.4346 37.097 32.0675 37.4778 32.4473L39.3817 34.3882C39.551 34.557 39.8048 34.6835 40.0587 34.6835C40.3126 34.6835 40.5664 34.557 40.7356 34.3882L42.6396 32.4473C43.105 32.0253 43.105 31.4346 42.7242 31.0549ZM35.1508 34.4304C35.1508 36.6667 33.3315 38.481 31.1314 38.481H27.1543C24.9119 38.481 23.1349 36.6667 23.1349 34.4304V29.789L28.7197 32.2785C28.889 32.3629 29.1005 32.4051 29.2698 32.4051C29.439 32.4051 29.6505 32.3629 29.8198 32.2785L35.1508 29.8734V34.4304ZM38.2394 26.8776L29.2275 30.9283L18.6078 26.1603L29.1851 21.519L39.6779 26.2447L38.2394 26.8776ZM40.101 32.9536L38.9163 31.73L40.101 30.5063L41.2857 31.73L40.101 32.9536Z" fill="#283D88"/>
<path d="M42.7242 31.0552L40.8203 29.1143" stroke="#283D88" stroke-width="0.1"/>
<path d="M40.8203 29.1139V27.2573" stroke="#283D88" stroke-width="0.1"/>
<path d="M40.8203 27.2573C41.1165 27.0041 41.2434 26.6244 41.2434 26.2446" stroke="#283D88" stroke-width="0.1"/>
<path d="M41.2433 26.2448C41.2433 25.6963 40.9472 25.2322 40.4395 24.979" stroke="#283D88" stroke-width="0.1"/>
<path d="M40.4406 24.9788L29.7363 20.1265" stroke="#283D88" stroke-width="0.1"/>
<path d="M29.7367 20.1266C29.3982 19.9578 28.9751 19.9578 28.6367 20.1266" stroke="#283D88" stroke-width="0.1"/>
<path d="M28.634 20.1265L17.8027 24.8944" stroke="#283D88" stroke-width="0.1"/>
<path d="M17.8039 24.8945C17.2962 25.1055 17 25.6118 17 26.1604" stroke="#283D88" stroke-width="0.1"/>
<path d="M17 26.1602C17 26.7087 17.2962 27.215 17.8039 27.426" stroke="#283D88" stroke-width="0.1"/>
<path d="M17.8027 27.4263L21.6106 29.1562" stroke="#283D88" stroke-width="0.1"/>
<path d="M21.6113 29.1562V34.4727" stroke="#283D88" stroke-width="0.1"/>
<path d="M21.6113 34.4727C21.6113 37.5106 24.0653 40.0001 27.1116 40.0001" stroke="#283D88" stroke-width="0.1"/>
<path d="M27.1113 40H31.0884" stroke="#283D88" stroke-width="0.1"/>
<path d="M31.0898 40.0001C34.1361 40.0001 36.59 37.5106 36.59 34.4727" stroke="#283D88" stroke-width="0.1"/>
<path d="M36.5898 34.4723V29.2402" stroke="#283D88" stroke-width="0.1"/>
<path d="M36.5898 29.2402L38.8322 28.2275" stroke="#283D88" stroke-width="0.1"/>
<path d="M38.832 28.2276L39.2974 28.0166" stroke="#283D88" stroke-width="0.1"/>
<path d="M39.2969 28.0166V29.198" stroke="#283D88" stroke-width="0.1"/>
<path d="M39.2959 29.1982L37.4766 31.0548" stroke="#283D88" stroke-width="0.1"/>
<path d="M37.479 31.0547C37.0982 31.4344 37.0982 32.0673 37.479 32.4471" stroke="#283D88" stroke-width="0.1"/>
<path d="M37.4766 32.4473L39.3806 34.3882" stroke="#283D88" stroke-width="0.1"/>
<path d="M39.3809 34.3882C39.5502 34.557 39.804 34.6835 40.0579 34.6835" stroke="#283D88" stroke-width="0.1"/>
<path d="M40.0586 34.6835C40.3125 34.6835 40.5663 34.557 40.7355 34.3882" stroke="#283D88" stroke-width="0.1"/>
<path d="M40.7344 34.3882L42.6384 32.4473" stroke="#283D88" stroke-width="0.1"/>
<path d="M42.6387 32.4471C43.1042 32.0252 43.1042 31.4344 42.7234 31.0547" stroke="#283D88" stroke-width="0.1"/>
<path d="M35.1504 34.4307C35.1504 36.667 33.331 38.4813 31.1309 38.4813" stroke="#283D88" stroke-width="0.1"/>
<path d="M31.1314 38.481H27.1543" stroke="#283D88" stroke-width="0.1"/>
<path d="M27.1542 38.4813C24.9118 38.4813 23.1348 36.667 23.1348 34.4307" stroke="#283D88" stroke-width="0.1"/>
<path d="M23.1348 34.4304V29.7891" stroke="#283D88" stroke-width="0.1"/>
<path d="M23.1348 29.7891L28.7196 32.2785" stroke="#283D88" stroke-width="0.1"/>
<path d="M28.7188 32.2783C28.8881 32.3627 29.0996 32.4049 29.2689 32.4049" stroke="#283D88" stroke-width="0.1"/>
<path d="M29.2695 32.4049C29.4388 32.4049 29.6503 32.3627 29.8196 32.2783" stroke="#283D88" stroke-width="0.1"/>
<path d="M29.8203 32.2786L35.1513 29.8735" stroke="#283D88" stroke-width="0.1"/>
<path d="M35.1523 29.8735V34.4305" stroke="#283D88" stroke-width="0.1"/>
<path d="M38.2386 26.8779L29.2266 30.9286" stroke="#283D88" stroke-width="0.1"/>
<path d="M29.2271 30.9281L18.6074 26.1602" stroke="#283D88" stroke-width="0.1"/>
<path d="M18.6074 26.1604L29.1848 21.519" stroke="#283D88" stroke-width="0.1"/>
<path d="M29.1855 21.519L39.6782 26.2448" stroke="#283D88" stroke-width="0.1"/>
<path d="M39.6787 26.2446L38.2402 26.8775" stroke="#283D88" stroke-width="0.1"/>
<path d="M40.1007 32.9536L38.916 31.73" stroke="#283D88" stroke-width="0.1"/>
<path d="M38.916 31.73L40.1007 30.5063" stroke="#283D88" stroke-width="0.1"/>
<path d="M40.1016 30.5063L41.2862 31.73" stroke="#283D88" stroke-width="0.1"/>
<path d="M41.2862 31.73L40.1016 32.9536" stroke="#283D88" stroke-width="0.1"/>
</g>
<defs>
<clipPath id="clip0_53_8332">
<rect width="60" height="60" fill="white"/>
</clipPath>
</defs>
</svg>
