<svg width="116" height="30" viewBox="0 0 116 30" fill="none" xmlns="http://www.w3.org/2000/svg">
<g clip-path="url(#clip0_2001_2869)">
<path d="M3.03963 0.284668H0V12.9566H3.03963V0.284668Z" fill="white"/>
<path d="M17.0168 12.9551H14.5112L8.26619 5.61733V12.9551H5.22656V0.284668H7.75064L13.9956 7.84896V0.284668H17.0168V12.9551Z" fill="white"/>
<path d="M25.0955 3.00763V12.9551H22.0742V3.00763H18.0771V0.284668H29.0925V3.00763H25.0955Z" fill="white"/>
<path d="M39.7615 12.9551H30.1455V0.284668H39.7063V2.96936H33.1851V5.35253H39.1723V7.88722H33.1851V10.2704H39.7615V12.9551Z" fill="white"/>
<path d="M49.3709 12.9551L45.65 8.60508H44.7662V12.9551H41.7266V0.284668H47.9715C50.6429 0.284668 52.4105 1.94845 52.4105 4.42651C52.4105 6.50661 51.1585 8.00048 49.1684 8.45508L53.0366 12.9551H49.3709ZM47.6401 5.99539C48.7265 5.99539 49.4261 5.39079 49.4261 4.46477C49.4261 3.53875 48.7265 2.95253 47.6401 2.95253H44.7662V5.99691L47.6401 5.99539Z" fill="white"/>
<path d="M65.4042 12.9551H62.383V7.94385H57.189V12.9551H54.1494V0.284668H57.189V5.22089H62.383V0.284668H65.4042V12.9551Z" fill="white"/>
<path d="M80.1909 6.63826C80.1909 10.327 77.2986 13.2398 73.6145 13.2398C69.9304 13.2398 67.0381 10.3316 67.0381 6.63826C67.0381 2.9449 69.9304 0 73.6145 0C77.2986 0 80.1909 2.93265 80.1909 6.63826ZM77.1513 6.63826C77.1513 4.46326 75.6169 2.85612 73.6145 2.85612C71.6121 2.85612 70.0777 4.46326 70.0777 6.63826C70.0777 8.81326 71.6121 10.3837 73.6145 10.3837C75.6169 10.3837 77.1513 8.7949 77.1513 6.63826Z" fill="white"/>
<path d="M92.7499 7.24436C92.7499 10.875 90.5573 13.2398 87.2783 13.2398C83.9256 13.2398 81.6777 10.875 81.6777 7.24436V0.284668H84.7174V7.24436C84.7174 9.17293 85.7316 10.3638 87.2783 10.3638C88.7344 10.3638 89.7103 9.17293 89.7103 7.24436V0.284668H92.7499V7.24436Z" fill="white"/>
<path d="M104.53 3.6734L101.545 4.29789C101.324 3.10707 100.367 2.52085 99.397 2.52085C98.3843 2.52085 97.7399 3.08718 97.7399 3.80656C97.7399 4.31626 97.9608 4.69585 98.7342 4.86575L101.295 5.45197C103.432 5.9433 104.685 7.13565 104.685 9.13922C104.685 11.8438 102.345 13.2443 99.5996 13.2443C96.8193 13.2443 94.5361 11.8821 94.2031 9.40401L97.3348 8.78105C97.6417 10.0851 98.5316 10.653 99.7653 10.653C100.908 10.653 101.59 10.1234 101.59 9.34738C101.59 8.78106 101.332 8.42136 100.448 8.23157L97.8688 7.66524C96.0996 7.24891 94.553 6.30299 94.553 3.99177C94.553 1.5336 96.5477 0.00146484 99.4339 0.00146484C102.124 0.00146484 104.077 1.36371 104.537 3.67493" fill="white"/>
<path d="M116.035 12.9551H106.419V0.284668H115.98V2.96936H109.459V5.35253H115.446V7.88722H109.459V10.2704H116.035V12.9551Z" fill="white"/>
<path d="M30.616 29.9756H21.4971V17.3052H24.5367V27.2526H30.616V29.9756Z" fill="white"/>
<path d="M36.777 29.9756H33.6821V26.0419L28.9102 17.3052H32.2275L35.2656 22.8644L38.2684 17.3052H41.6594L36.777 26.0036V29.9756Z" fill="white"/>
<path d="M53.9115 25.2292C53.3407 28.4052 50.8535 30.2588 47.6849 30.2588C44.0193 30.2588 41.127 27.3659 41.127 23.6404C41.127 19.9149 44.0193 17.0205 47.6849 17.0205C50.7246 17.0205 53.3039 18.8741 53.8931 21.8817L50.9087 22.5996C50.522 20.7629 49.27 19.8766 47.6865 19.8766C45.7347 19.8766 44.1681 21.4838 44.1681 23.6404C44.1681 25.797 45.7347 27.4225 47.6865 27.4225C49.2531 27.4225 50.5052 26.5149 50.9286 24.6231L53.9115 25.2292Z" fill="white"/>
<path d="M65.1199 29.9756H55.5039V17.3052H65.0647V19.9899H58.5435V22.373H64.5307V24.9077H58.5435V27.2894H65.1199V29.9756Z" fill="white"/>
<path d="M77.9202 24.2629C77.9202 27.8951 75.7291 30.2583 72.4501 30.2583C69.096 30.2583 66.8496 27.8951 66.8496 24.2629V17.3032H69.8892V24.2629C69.8892 26.193 70.9019 27.3838 72.4501 27.3838C73.9047 27.3838 74.8806 26.193 74.8806 24.2629V17.3032H77.9202V24.2629Z" fill="white"/>
<path d="M94.2977 29.9756H91.3502V23.6587L88.1264 29.9756H86.2483L83.0062 23.6205V29.9756H80.0586V17.3052H83.043L87.1874 25.1526L91.3318 17.3052H94.2977V29.9756Z" fill="white"/>
</g>
<defs>
<clipPath id="clip0_2001_2869">
<rect width="116" height="30" fill="white"/>
</clipPath>
</defs>
</svg>
