<svg width="42" height="42" viewBox="0 0 42 42" fill="none" xmlns="http://www.w3.org/2000/svg">
<g clip-path="url(#clip0_2001_2806)">
<path d="M28.792 8.21094V9.09054C32.6371 11.6299 35.1821 15.9879 35.1821 20.9311C35.1821 25.8742 32.6383 30.2322 28.792 32.7716V33.6512C33.0656 31.0235 35.9216 26.3048 35.9216 20.9311C35.9216 15.5573 33.0656 10.8386 28.792 8.21094Z" fill="#FF9F2C"/>
<path d="M13.2078 32.7716C9.36262 30.2322 6.81771 25.8742 6.81771 20.9311C6.81771 15.9879 9.36151 11.6299 13.2078 9.09054V8.21094C8.93476 10.8386 6.07812 15.5584 6.07812 20.9311C6.07812 26.3037 8.93476 31.0235 13.2078 33.6512V32.7716Z" fill="#FF9F2C"/>
<path d="M9.13659 31.7929L7.10449 33.7368L7.58309 34.2371L9.61519 32.2932L9.13659 31.7929Z" fill="#FF9F2C"/>
<path d="M7.26209 29.4023L7.60104 29.8613L7.13651 31.9734L8.44675 31.006L8.85849 31.5627L6.59641 33.2342L6.25468 32.7713L6.75921 30.6292L5.40896 31.6272L5 31.0732L7.26209 29.4023Z" fill="#FF9F2C"/>
<path d="M4.48269 28.8035L6.45639 27.8145L6.76478 28.4301L4.79108 29.4192L5.19893 30.2332L4.65883 30.5038L3.53418 28.2601L4.07484 27.9889L4.48269 28.8035Z" fill="#FF9F2C"/>
<path d="M5.3309 24.7373L5.9938 26.826L3.31331 27.6762L2.6543 25.5997L3.22218 25.4197L3.67171 26.836L4.17569 26.676L3.76339 25.3758L4.2996 25.2057L4.7119 26.506L5.21588 26.3459L4.76302 24.9173L5.3309 24.7373Z" fill="#FF9F2C"/>
<path d="M5.00808 22.7389L4.17459 23.7179L4.20349 23.9174L5.15866 23.7768L5.25924 24.462L2.47761 24.8709L2.27091 23.4634C2.18256 22.8611 2.48928 22.4077 3.03271 22.3293C3.48947 22.2621 3.85898 22.496 4.02456 22.93L4.88917 21.9126L5.00808 22.7389ZM3.53725 23.354C3.50113 23.1089 3.34499 22.9706 3.14162 23.0006C2.93825 23.0306 2.83268 23.2067 2.8688 23.4518L2.96381 24.0997L3.6306 24.0013L3.53725 23.354Z" fill="#FF9F2C"/>
<path d="M4.95532 19.2351L4.93754 19.9236L3.82512 19.8958L3.79567 21.0793L4.90809 21.1071L4.89031 21.7995L2.07812 21.7289L2.09535 21.0366L3.19111 21.0638L3.22111 19.8802L2.12536 19.853L2.14258 19.1646L4.95532 19.2351Z" fill="#FF9F2C"/>
<path d="M4.22303 15.7778C5.02262 15.9501 5.5166 16.7297 5.3399 17.5504C5.1632 18.3711 4.39528 18.8795 3.59347 18.7078C2.79165 18.5361 2.28934 17.7537 2.46604 16.9336C2.64274 16.1134 3.41621 15.605 4.22081 15.7778M4.07522 16.4552C3.60347 16.3535 3.18117 16.6191 3.08504 17.0664C2.98891 17.5137 3.26452 17.9293 3.73683 18.0305C4.20914 18.1316 4.62199 17.8638 4.71812 17.4192C4.81425 16.9747 4.54309 16.5574 4.07522 16.4568" fill="#FF9F2C"/>
<path d="M5.48903 13.0502C6.23194 13.363 6.52199 14.027 6.2325 14.7171C5.93578 15.4217 5.25398 15.6901 4.50996 15.3773L3.08691 14.7772L3.3553 14.1382L4.77945 14.7377C5.17397 14.9044 5.50736 14.7933 5.64405 14.4682C5.77297 14.1626 5.61516 13.857 5.22064 13.6903L3.79649 13.0896L4.06487 12.4512L5.48903 13.0502Z" fill="#FF9F2C"/>
<path d="M6.28972 10.244L6.04245 10.8907C5.93501 10.8469 5.81532 10.8436 5.70559 10.8813C5.59585 10.919 5.50351 10.9952 5.44568 11.0958C5.32176 11.2908 5.34955 11.482 5.48402 11.5675C5.58015 11.6287 5.67794 11.6309 5.80408 11.5025L6.22693 11.0791C6.57977 10.7263 6.95596 10.6274 7.33214 10.8652C7.8389 11.1869 7.81556 11.8037 7.4805 12.3321C7.14543 12.8606 6.60645 13.145 6.10191 12.9144L6.36751 12.2377C6.65034 12.3321 6.86427 12.2293 7.01486 11.9921C7.15433 11.7698 7.13821 11.5781 6.99318 11.4859C6.8865 11.4181 6.78759 11.4253 6.64479 11.5731L6.2236 12.0021C5.92965 12.2927 5.56348 12.4777 5.13117 12.2038C4.66998 11.9115 4.62552 11.3464 4.97892 10.7896C5.30732 10.2717 5.8013 10.0578 6.28972 10.244Z" fill="#FF9F2C"/>
<path d="M9.66488 9.4683L8.21739 11.1125L6.10645 9.25438L7.54616 7.61963L7.99346 8.01359L7.01161 9.1288L7.40835 9.47775L8.30963 8.45423L8.73193 8.82596L7.83065 9.84949L8.22739 10.199L9.21758 9.07434L9.66488 9.4683Z" fill="#FF9F2C"/>
<path d="M33.1962 31.6632L32.7275 32.1729L34.7976 34.0764L35.2662 33.5667L33.1962 31.6632Z" fill="#FF9F2C"/>
<path d="M37.293 30.9049L36.9612 31.3694L34.8092 31.5795L36.1333 32.5263L35.7305 33.0898L33.4434 31.4539L33.7779 30.986L35.971 30.8054L34.6058 29.8291L35.0059 29.269L37.293 30.9049Z" fill="#FF9F2C"/>
<path d="M36.3031 27.9932L38.2868 28.96L37.9857 29.5791L36.0014 28.6116L35.603 29.4301L35.0596 29.1651L36.1592 26.9097L36.7021 27.1747L36.3031 27.9932Z" fill="#FF9F2C"/>
<path d="M39.5301 25.5237L38.8794 27.6168L36.1934 26.7811L36.8401 24.7002L37.4097 24.8775L36.9679 26.2966L37.473 26.4539L37.8787 25.1508L38.416 25.3181L38.0104 26.6211L38.5155 26.7784L38.9611 25.347L39.5301 25.5237Z" fill="#FF9F2C"/>
<path d="M39.9326 23.1455L38.8558 23.8457L38.8269 24.0446L39.782 24.1835L39.6826 24.8686L36.9004 24.4647L37.1049 23.06C37.1921 22.4576 37.6155 22.112 38.1606 22.1915C38.6174 22.2576 38.9047 22.5876 38.9385 23.0505L40.0532 22.322L39.9326 23.1455ZM38.3479 23.3122C38.3834 23.0672 38.2734 22.8905 38.0701 22.8605C37.8667 22.8305 37.715 22.9716 37.6811 23.2155L37.5872 23.8629L38.254 23.9601L38.3479 23.3122Z" fill="#FF9F2C"/>
<path d="M40.0192 19.2202L40.0348 19.9087L38.9223 19.9331L38.949 21.1172L40.0614 21.0917L40.077 21.7846L37.2643 21.8479L37.2493 21.155L38.3445 21.1306L38.3178 19.947L37.2226 19.9715L37.207 19.283L40.0192 19.2202Z" fill="#FF9F2C"/>
<path d="M37.9898 15.8989C38.7911 15.7322 39.5568 16.2495 39.7257 17.0713C39.8946 17.8931 39.3923 18.6688 38.5922 18.8333C37.792 18.9978 37.0169 18.4843 36.848 17.6625C36.679 16.8407 37.1841 16.0639 37.9898 15.8989ZM38.1287 16.5768C37.6564 16.674 37.3769 17.0869 37.4686 17.5353C37.5603 17.9837 37.9804 18.2526 38.4533 18.1554C38.9261 18.0582 39.1967 17.647 39.105 17.1991C39.0134 16.7512 38.5977 16.4806 38.1287 16.5768Z" fill="#FF9F2C"/>
<path d="M37.034 13.1215C37.7814 12.8203 38.4543 13.0876 38.7333 13.7805C39.0189 14.4884 38.7233 15.1596 37.9764 15.4603L36.544 16.037L36.2845 15.3952L37.717 14.8179C38.1143 14.6584 38.2726 14.3456 38.1415 14.0183C38.0176 13.711 37.6892 13.6038 37.2924 13.7633L35.8599 14.3401L35.6016 13.6983L37.034 13.1215Z" fill="#FF9F2C"/>
<path d="M34.9338 11.1361L35.4056 11.6451C35.3188 11.7217 35.2626 11.8272 35.2475 11.942C35.2324 12.0568 35.2593 12.1732 35.3233 12.2696C35.4433 12.4669 35.6273 12.5269 35.764 12.4441C35.8606 12.3852 35.9062 12.2985 35.8467 12.1285L35.6545 11.5617C35.495 11.0894 35.5723 10.7082 35.9529 10.4765C36.4658 10.1648 37.0086 10.4588 37.3331 10.9933C37.6576 11.5278 37.6749 12.1368 37.2442 12.4869L36.7552 11.9496C36.9653 11.7379 36.9686 11.5001 36.8219 11.26C36.6869 11.0377 36.5058 10.9661 36.3585 11.0555C36.2507 11.1205 36.2135 11.2122 36.2824 11.4067L36.4802 11.974C36.6108 12.3663 36.6147 12.777 36.1768 13.0431C35.7106 13.3265 35.1844 13.1159 34.8432 12.5525C34.5248 12.029 34.5515 11.4917 34.9349 11.1361" fill="#FF9F2C"/>
<path d="M34.8879 7.84131L36.2959 9.52106L34.1399 11.3286L32.7402 9.65831L33.197 9.27546L34.1516 10.4146L34.5572 10.0745L33.6804 9.02875L34.1116 8.66757L34.9884 9.71277L35.3941 9.37326L34.4305 8.22416L34.8879 7.84131Z" fill="#FF9F2C"/>
<path d="M21.0004 41.8622C9.45941 41.8622 0.0693359 32.4716 0.0693359 20.9311C0.0693359 9.39063 9.45941 0 21.0004 0C32.5415 0 41.9315 9.39063 41.9315 20.9311C41.9315 32.4716 32.5409 41.8622 21.0004 41.8622ZM21.0004 0.731247C9.86226 0.731247 0.801138 9.79292 0.801138 20.9311C0.801138 32.0693 9.86226 41.1304 21.0004 41.1304C32.1386 41.1304 41.2003 32.0693 41.2003 20.9311C41.2003 9.79292 32.1386 0.731247 21.0004 0.731247Z" fill="#FF9F2C"/>
<path d="M11.0108 6.66326C13.936 4.6068 17.4247 3.50324 21.0004 3.50324C24.5762 3.50324 28.0648 4.6068 30.9901 6.66326H32.2125C29.0183 4.1428 25.0682 2.77197 20.9993 2.77197C16.9305 2.77197 12.9803 4.1428 9.78613 6.66326H11.0108Z" fill="#FF9F2C"/>
<path d="M30.9898 35.1987C28.0646 37.2552 24.5759 38.3587 21.0002 38.3587C17.4244 38.3587 13.9358 37.2552 11.0105 35.1987H9.78809C12.9821 37.7196 16.9323 39.0906 21.0013 39.0906C25.0702 39.0906 29.0205 37.7196 32.2145 35.1987H30.9898Z" fill="#FF9F2C"/>
<path d="M26.7854 17.5916H28.5729C28.6017 17.5917 28.6302 17.5861 28.6569 17.5751C28.6835 17.5641 28.7077 17.548 28.7281 17.5277C28.7485 17.5073 28.7647 17.4832 28.7757 17.4566C28.7867 17.43 28.7924 17.4015 28.7924 17.3727V15.5846C28.7924 15.5261 28.7694 15.47 28.7283 15.4284C28.6872 15.3868 28.6314 15.363 28.5729 15.3623H13.4273C13.3684 15.3623 13.3119 15.3857 13.2702 15.4274C13.2285 15.4691 13.2051 15.5256 13.2051 15.5846V17.3727C13.2051 17.4017 13.2108 17.4305 13.2221 17.4572C13.2333 17.484 13.2497 17.5083 13.2704 17.5287C13.2911 17.549 13.3156 17.5651 13.3425 17.5759C13.3695 17.5867 13.3983 17.592 13.4273 17.5916H15.2143C15.2728 17.5923 15.3286 17.6161 15.3697 17.6577C15.4108 17.6993 15.4338 17.7554 15.4338 17.8139V28.5053C15.4331 28.5633 15.4097 28.6187 15.3687 28.6597C15.3277 28.7007 15.2723 28.7241 15.2143 28.7248H13.4273C13.3684 28.7248 13.3119 28.7482 13.2702 28.7899C13.2285 28.8316 13.2051 28.8881 13.2051 28.947V30.7279C13.2051 30.7869 13.2285 30.8434 13.2702 30.8851C13.3119 30.9268 13.3684 30.9502 13.4273 30.9502H28.5729C28.6314 30.9495 28.6872 30.9257 28.7283 30.8841C28.7694 30.8425 28.7924 30.7864 28.7924 30.7279V28.9432C28.7924 28.8847 28.7694 28.8286 28.7283 28.787C28.6872 28.7454 28.6314 28.7216 28.5729 28.7209H26.7854C26.728 28.7202 26.6732 28.6974 26.6323 28.6572C26.5914 28.617 26.5676 28.5626 26.5659 28.5053V17.8111C26.5659 17.7526 26.5889 17.6965 26.63 17.6549C26.6711 17.6133 26.7269 17.5896 26.7854 17.5888M24.1182 28.7209H22.3323C22.2751 28.7205 22.2204 28.6977 22.1798 28.6574C22.1392 28.6171 22.1159 28.5625 22.1151 28.5053V24.4896C22.1151 24.4605 22.1093 24.4318 22.0981 24.405C22.0869 24.3782 22.0704 24.3539 22.0498 24.3336C22.0291 24.3132 22.0046 24.2971 21.9776 24.2863C21.9507 24.2755 21.9218 24.2702 21.8928 24.2706H20.1058C20.0477 24.2706 19.9921 24.2937 19.951 24.3347C19.9099 24.3758 19.8869 24.4315 19.8869 24.4896V28.5053C19.8862 28.5632 19.8629 28.6185 19.822 28.6595C19.7811 28.7005 19.7258 28.7239 19.6679 28.7248H17.8798C17.8218 28.7241 17.7664 28.7007 17.7254 28.6597C17.6844 28.6187 17.6611 28.5633 17.6603 28.5053V17.8111C17.6603 17.7526 17.6834 17.6965 17.7245 17.6549C17.7655 17.6133 17.8214 17.5896 17.8798 17.5888H19.6702C19.7285 17.5897 19.7842 17.6135 19.8252 17.6551C19.8661 17.6967 19.8891 17.7527 19.8891 17.8111V21.8252C19.8891 21.8835 19.912 21.9396 19.953 21.9812C19.994 22.0228 20.0497 22.0466 20.108 22.0474H21.8928C21.9517 22.0474 22.0083 22.024 22.05 21.9823C22.0916 21.9406 22.1151 21.8841 22.1151 21.8252V17.8111C22.1146 17.7821 22.12 17.7532 22.1308 17.7263C22.1416 17.6993 22.1576 17.6748 22.178 17.6541C22.1984 17.6334 22.2227 17.617 22.2494 17.6058C22.2762 17.5946 22.305 17.5888 22.334 17.5888H24.1221C24.181 17.5888 24.2376 17.6122 24.2793 17.6539C24.3209 17.6956 24.3444 17.7521 24.3444 17.8111V28.5053C24.3436 28.5638 24.3199 28.6196 24.2783 28.6607C24.2367 28.7017 24.1806 28.7248 24.1221 28.7248" fill="white"/>
<path d="M28.5731 10.9126H13.4275C13.3063 10.9126 13.208 11.0109 13.208 11.1321V12.9196C13.208 13.0409 13.3063 13.1391 13.4275 13.1391H28.5731C28.6943 13.1391 28.7926 13.0409 28.7926 12.9196V11.1321C28.7926 11.0109 28.6943 10.9126 28.5731 10.9126Z" fill="white"/>
</g>
<defs>
<clipPath id="clip0_2001_2806">
<rect width="42" height="41.8622" fill="white"/>
</clipPath>
</defs>
</svg>
