<svg width="26" height="26" viewBox="0 0 26 26" fill="none" xmlns="http://www.w3.org/2000/svg">
<mask id="mask0_111_100" style="mask-type:luminance" maskUnits="userSpaceOnUse" x="0" y="0" width="26" height="26">
<path d="M26 0H0V26H26V0Z" fill="white"/>
</mask>
<g mask="url(#mask0_111_100)">
<path d="M20.7017 18.6459L18.4147 15.114C20.2036 13.1495 20.2717 10.1818 18.5871 8.13968L20.718 5.76606C22.7379 6.7894 25.1367 5.31101 25.1367 3.04688C25.1367 1.36672 23.77 0 22.0898 0C19.6444 0 18.1989 2.75071 19.5726 4.76135L17.4611 7.11354C14.8458 5.33721 11.2213 6.21613 9.73568 9.08131L7.61439 8.5864C7.67391 6.43037 5.93745 4.67188 3.80859 4.67188C1.70854 4.67188 0 6.38041 0 8.48046C0 10.5805 1.70854 12.2891 3.80859 12.2891C5.34158 12.2891 6.66484 11.3784 7.26827 10.0699L9.23482 10.5288C8.89053 12.3381 9.49828 14.1932 10.867 15.4518L8.70401 18.6152C6.72374 17.8969 4.62109 19.3711 4.62109 21.4804C4.62109 23.1606 5.98782 24.5273 7.66796 24.5273C10.2822 24.5273 11.6753 21.4367 9.96049 19.477L12.1234 16.3131C13.7054 17.0926 15.6387 17.0556 17.2311 16.0889L19.4236 19.4752C16.9984 21.8561 18.6903 26 22.0898 26C24.1899 26 25.8984 24.2915 25.8984 22.1914C25.8984 19.5215 23.2002 17.6642 20.7017 18.6459ZM3.80859 10.7656C2.54856 10.7656 1.52344 9.74046 1.52344 8.48046C1.52344 7.22048 2.54861 6.19531 3.80859 6.19531C5.06858 6.19531 6.09375 7.22048 6.09375 8.48046C6.09375 9.74046 5.06858 10.7656 3.80859 10.7656ZM7.66796 23.0039C6.82789 23.0039 6.14454 22.3206 6.14454 21.4804C6.14454 20.6404 6.82789 19.9571 7.66796 19.9571C8.50805 19.9571 9.19141 20.6404 9.19141 21.4804C9.19141 22.3206 8.50805 23.0039 7.66796 23.0039ZM22.0898 1.52344C22.9299 1.52344 23.6133 2.2068 23.6133 3.04688C23.6133 3.88695 22.9299 4.57031 22.0898 4.57031C21.2498 4.57031 20.5664 3.88695 20.5664 3.04688C20.5664 2.2068 21.2498 1.52344 22.0898 1.52344ZM10.6641 11.5273C10.6641 9.42729 12.3726 7.71875 14.4727 7.71875C16.5727 7.71875 18.2812 9.42729 18.2812 11.5273C18.2812 13.6274 16.5727 15.3359 14.4727 15.3359C12.3726 15.3359 10.6641 13.6274 10.6641 11.5273ZM22.0898 24.4766C20.8298 24.4766 19.8046 23.4514 19.8046 22.1914C19.8046 20.9314 20.8299 19.9062 22.0898 19.9062C23.3498 19.9062 24.375 20.9314 24.375 22.1914C24.375 23.4514 23.3498 24.4766 22.0898 24.4766Z" fill="white"/>
</g>
</svg>
